<svg xmlns="http://www.w3.org/2000/svg" xmlns:xlink="http://www.w3.org/1999/xlink" width="500" zoomAndPan="magnify" viewBox="0 0 375 374.999991" height="500" preserveAspectRatio="xMidYMid meet" version="1.0"><defs><g/><clipPath id="ea25d9a46a"><path d="M 47 100.046875 L 328 100.046875 L 328 274.796875 L 47 274.796875 Z M 47 100.046875 " clip-rule="nonzero"/></clipPath><clipPath id="dbaf5f263c"><path d="M 42 130 L 86 130 L 86 180 L 42 180 Z M 42 130 " clip-rule="nonzero"/></clipPath><clipPath id="0e88a12541"><path d="M 0.550781 165.242188 L 25.292969 89.691406 L 93.003906 111.863281 L 68.261719 187.417969 Z M 0.550781 165.242188 " clip-rule="nonzero"/></clipPath><clipPath id="953b578268"><path d="M 0.550781 165.242188 L 25.292969 89.691406 L 93.003906 111.863281 L 68.261719 187.417969 Z M 0.550781 165.242188 " clip-rule="nonzero"/></clipPath><clipPath id="17f49130a4"><path d="M 42 97 L 56 97 L 56 128 L 42 128 Z M 42 97 " clip-rule="nonzero"/></clipPath><clipPath id="870d401369"><path d="M 0.550781 165.242188 L 25.292969 89.691406 L 93.003906 111.863281 L 68.261719 187.417969 Z M 0.550781 165.242188 " clip-rule="nonzero"/></clipPath><clipPath id="4710961464"><path d="M 0.550781 165.242188 L 25.292969 89.691406 L 93.003906 111.863281 L 68.261719 187.417969 Z M 0.550781 165.242188 " clip-rule="nonzero"/></clipPath><clipPath id="b8bfa9fdf4"><path d="M 17 115 L 43 115 L 43 137 L 17 137 Z M 17 115 " clip-rule="nonzero"/></clipPath><clipPath id="213f2f4f0d"><path d="M 0.550781 165.242188 L 25.292969 89.691406 L 93.003906 111.863281 L 68.261719 187.417969 Z M 0.550781 165.242188 " clip-rule="nonzero"/></clipPath><clipPath id="90151f2ab5"><path d="M 0.550781 165.242188 L 25.292969 89.691406 L 93.003906 111.863281 L 68.261719 187.417969 Z M 0.550781 165.242188 " clip-rule="nonzero"/></clipPath><clipPath id="01fa073106"><path d="M 8 141 L 36 141 L 36 152 L 8 152 Z M 8 141 " clip-rule="nonzero"/></clipPath><clipPath id="9be83eb619"><path d="M 0.550781 165.242188 L 25.292969 89.691406 L 93.003906 111.863281 L 68.261719 187.417969 Z M 0.550781 165.242188 " clip-rule="nonzero"/></clipPath><clipPath id="af2988f673"><path d="M 0.550781 165.242188 L 25.292969 89.691406 L 93.003906 111.863281 L 68.261719 187.417969 Z M 0.550781 165.242188 " clip-rule="nonzero"/></clipPath><clipPath id="70d6d089c8"><path d="M 70 105 L 75 105 L 75 123 L 70 123 Z M 70 105 " clip-rule="nonzero"/></clipPath><clipPath id="96f9fbff24"><path d="M 0.550781 165.242188 L 25.292969 89.691406 L 93.003906 111.863281 L 68.261719 187.417969 Z M 0.550781 165.242188 " clip-rule="nonzero"/></clipPath><clipPath id="9c17f686f8"><path d="M 0.550781 165.242188 L 25.292969 89.691406 L 93.003906 111.863281 L 68.261719 187.417969 Z M 0.550781 165.242188 " clip-rule="nonzero"/></clipPath><clipPath id="a75bd32c54"><path d="M 15 163 L 33 163 L 33 168 L 15 168 Z M 15 163 " clip-rule="nonzero"/></clipPath><clipPath id="6e5549e144"><path d="M 0.550781 165.242188 L 25.292969 89.691406 L 93.003906 111.863281 L 68.261719 187.417969 Z M 0.550781 165.242188 " clip-rule="nonzero"/></clipPath><clipPath id="2cb6e0c1c2"><path d="M 0.550781 165.242188 L 25.292969 89.691406 L 93.003906 111.863281 L 68.261719 187.417969 Z M 0.550781 165.242188 " clip-rule="nonzero"/></clipPath></defs><g clip-path="url(#ea25d9a46a)"><path fill="#ffffff" d="M 50.296875 161.292969 C 50.296875 161.292969 177.730469 103.15625 197.363281 101.617188 C 217 100.078125 217.191406 101.234375 233.554688 104.507812 C 249.917969 107.78125 285.046875 118.945312 287.359375 120.003906 C 289.667969 121.0625 290.53125 126.546875 289.089844 126.546875 C 287.644531 126.546875 270.515625 126.257812 271.1875 127.796875 C 271.859375 129.339844 292.070312 132.996094 293.324219 133.765625 C 294.574219 134.535156 295.457031 137.457031 293.148438 137.363281 C 290.839844 137.265625 271.46875 134.988281 271.089844 136.363281 C 270.988281 136.730469 271.023438 138.511719 273.574219 139.4375 C 280.574219 141.972656 294.546875 143.441406 295.691406 144.136719 C 297.253906 145.089844 298.273438 147.59375 297.695312 147.882812 C 297.121094 148.171875 275.65625 147.496094 274.402344 147.882812 C 273.152344 148.265625 272.632812 151.957031 272.632812 151.957031 C 272.632812 151.957031 300.734375 156.867188 302.46875 158.3125 C 304.203125 159.753906 302.085938 161.199219 302.085938 161.199219 C 302.085938 161.199219 255.308594 158.601562 252.804688 159.273438 C 250.304688 159.945312 250.976562 161.964844 250.976562 161.964844 C 250.976562 161.964844 287.167969 165.816406 296.503906 168.03125 C 305.835938 170.246094 306.414062 172.84375 306.414062 173.519531 C 306.414062 174.191406 259.253906 173.519531 254.730469 174 C 250.207031 174.480469 250.976562 176.597656 250.976562 176.597656 C 250.976562 176.597656 295.828125 181.023438 301.988281 182.566406 C 308.148438 184.105469 308.050781 186.894531 308.050781 186.894531 C 308.050781 186.894531 273.207031 186.605469 264.640625 187.183594 C 256.074219 187.761719 253.863281 190.265625 253.765625 191.035156 C 253.671875 191.804688 293.710938 194.882812 299.773438 195.558594 C 305.835938 196.230469 308.628906 197.675781 309.398438 198.542969 C 310.167969 199.410156 310.261719 199.984375 310.261719 199.984375 C 310.261719 199.984375 269.554688 200.660156 263.96875 200.757812 C 258.386719 200.851562 257.90625 204.894531 257.90625 204.894531 C 257.90625 204.894531 303.757812 207.703125 307.417969 208.761719 C 311.074219 209.820312 311.710938 212.496094 311.710938 212.496094 C 311.710938 212.496094 266.066406 214.71875 264.714844 215.488281 C 261.507812 217.320312 273.714844 218.464844 279.074219 218.539062 C 291.34375 218.707031 312.8125 218.917969 313.632812 218.371094 C 314.789062 217.597656 315.171875 216.445312 315.171875 216.445312 C 315.171875 216.445312 314.210938 179.675781 306.894531 156 C 299.582031 132.324219 293.613281 125.585938 293.613281 125.585938 C 293.613281 125.585938 295.570312 127.300781 298.351562 131.03125 C 298.351562 131.03125 313.632812 131.457031 320.082031 137.136719 C 326.53125 142.8125 327.683594 158.695312 327.875 159.367188 C 328.074219 160.042969 317.148438 161.292969 316.089844 160.425781 C 315.03125 159.5625 312.429688 143.535156 312.863281 142.8125 C 313.296875 142.09375 314.738281 144.304688 315.800781 148.203125 C 316.859375 152.101562 317.386719 155.855469 318.6875 156.816406 C 319.988281 157.777344 323.402344 156.867188 323.402344 156.867188 C 323.402344 156.867188 321.574219 144.980469 318.058594 140.40625 C 314.546875 135.835938 305.304688 136.652344 304.730469 136.796875 C 304.351562 136.894531 303.84375 138.242188 303.542969 139.152344 C 307.246094 145.863281 311.183594 155.253906 313.824219 167.742188 C 320.179688 197.769531 320.46875 217.695312 320.179688 218.5625 C 319.890625 219.425781 318.347656 223.757812 312.480469 223.949219 C 306.605469 224.144531 271.378906 225.683594 263.488281 223.371094 C 255.59375 221.0625 244.363281 209.15625 243.402344 205.496094 C 242.441406 201.839844 238.050781 165.480469 230.542969 140.648438 C 224.03125 119.113281 212.695312 103.9375 188.605469 111.242188 C 171.472656 116.441406 58.667969 162.0625 50.296875 161.292969 Z M 274.652344 242.71875 C 274.652344 242.71875 313.152344 242.34375 314.210938 243.46875 C 315.269531 244.597656 299.195312 246.597656 285.914062 246.847656 C 272.632812 247.097656 275.519531 246.597656 274.652344 242.71875 Z M 273.804688 236.035156 C 273.804688 236.035156 312.304688 235.640625 313.363281 236.824219 C 314.421875 238.011719 298.347656 240.121094 285.066406 240.382812 C 271.78125 240.648438 274.671875 240.121094 273.804688 236.035156 Z M 316.90625 240.121094 C 316.90625 240.121094 317.339844 234.296875 319.308594 230.546875 C 321.285156 226.792969 323.738281 227.46875 323.738281 227.46875 C 323.738281 227.46875 324.796875 228.332031 324.75 228.957031 C 324.699219 229.582031 321.574219 232.710938 320.371094 236.273438 C 319.167969 239.835938 318.445312 242.722656 316.90625 240.121094 Z M 242.761719 243.671875 C 242.761719 243.671875 242.761719 225.09375 242.761719 224.324219 C 242.761719 223.554688 252.484375 226.878906 261.148438 233.367188 C 269.808594 239.859375 269.421875 243.835938 268.269531 244.222656 C 267.113281 244.609375 258.644531 238.101562 254.121094 235.882812 C 249.597656 233.664062 247.480469 233.265625 247.480469 233.265625 C 247.480469 233.265625 247.480469 250.496094 242.761719 243.671875 Z M 195.394531 243.492188 C 195.394531 244.183594 194.828125 244.742188 194.140625 244.742188 C 193.449219 244.742188 192.890625 244.183594 192.890625 243.492188 L 192.890625 165.179688 C 149.257812 172.921875 63.625 187.539062 54.773438 184.683594 L 192.890625 153.917969 L 192.890625 146.703125 C 150.394531 156.5625 53.230469 178.753906 53.230469 175.445312 C 53.230469 175.445312 182.9375 136.027344 203.457031 131.257812 C 201.386719 128.117188 199.3125 126.191406 197.222656 125.585938 C 189.90625 123.46875 56.3125 171.402344 52.367188 166.441406 C 52.367188 166.441406 183.265625 119.859375 191.347656 118.128906 C 199.433594 116.394531 205.789062 116.394531 212.71875 127.367188 C 219.644531 138.339844 227.296875 157.433594 232.304688 193.816406 C 236.074219 221.21875 235.960938 239.835938 235.800781 248.878906 C 235.617188 258.691406 240.671875 260.898438 248.738281 260.511719 C 265.679688 259.699219 316.699219 257.078125 318.785156 254.992188 C 321.285156 252.488281 322.152344 246.234375 322.152344 246.234375 C 322.152344 246.234375 323.257812 245.992188 323.453125 247.242188 C 323.644531 248.492188 323.789062 256.339844 319.84375 259.035156 C 315.898438 261.726562 300.015625 262.5 300.015625 262.5 C 300.015625 262.5 319.554688 267.121094 321.191406 268.464844 C 322.824219 269.8125 318.976562 271.355469 318.976562 271.355469 C 318.976562 271.355469 246.695312 274.914062 239.570312 274.914062 C 232.449219 274.914062 174.699219 262.980469 172.871094 262.308594 C 171.042969 261.632812 170.65625 259.613281 170.65625 259.613281 C 170.65625 259.613281 170.082031 260.671875 166.804688 261.054688 C 163.535156 261.441406 159.300781 260.574219 156.890625 259.707031 C 154.488281 258.839844 152.175781 255.183594 152.175781 255.183594 C 152.175781 255.183594 150.347656 256.722656 149 256.722656 C 147.652344 256.722656 79.316406 243.34375 78.0625 243.054688 C 76.8125 242.765625 76.332031 241.613281 76.332031 241.613281 C 76.332031 241.613281 75.03125 242.382812 72.625 242.382812 C 70.222656 242.382812 68.152344 241.660156 67.523438 241.277344 C 66.898438 240.894531 66.128906 239.253906 66.128906 239.253906 C 66.128906 239.253906 52.171875 237.089844 50.777344 236.320312 C 49.382812 235.546875 56.3125 235.117188 56.3125 235.117188 C 56.3125 235.117188 46.925781 230.6875 47.3125 230.0625 C 47.699219 229.4375 63.675781 231.265625 63.675781 231.265625 L 63.816406 226.210938 C 63.816406 226.210938 63 216.492188 64.636719 214.085938 C 66.273438 211.679688 71.28125 210.574219 74.648438 214.472656 C 78.019531 218.367188 80.085938 235.066406 80.085938 235.066406 L 146.980469 245.125 C 146.980469 245.125 142.746094 219.425781 151.601562 215.480469 C 160.453125 211.535156 167.382812 216.539062 171.8125 225.875 C 176.238281 235.210938 177.101562 250.324219 177.101562 250.324219 L 224.796875 257.246094 C 224.796875 257.246094 225.785156 230.0625 223.453125 203.746094 C 218.070312 203.769531 208.125 203.847656 205.214844 204.121094 C 201.15625 204.507812 199.550781 203.640625 199.550781 203.640625 L 199.324219 173.707031 C 199.324219 173.707031 199.0625 170.433594 200.726562 169.664062 C 201.941406 169.101562 211.59375 167.304688 216.695312 166.378906 C 216.207031 164.585938 215.71875 162.847656 215.230469 161.164062 C 211.515625 161.839844 204.492188 163.113281 195.394531 164.734375 Z M 195.300781 146.144531 C 195.359375 146.289062 195.394531 146.449219 195.394531 146.617188 L 195.394531 153.359375 L 211.671875 149.734375 C 210.835938 147.285156 210.003906 145.007812 209.179688 142.902344 C 206.246094 143.59375 201.4375 144.71875 195.300781 146.144531 Z M 67.09375 201.621094 L 186.25 193.34375 C 186.25 193.34375 189.4375 199.308594 185.875 201.140625 C 182.316406 202.96875 67.960938 205.183594 67.09375 201.621094 Z M 69.164062 218.371094 C 70.941406 218.371094 72.382812 223.023438 72.382812 228.765625 C 72.382812 234.503906 70.941406 239.15625 69.164062 239.15625 C 67.382812 239.15625 65.9375 234.503906 65.9375 228.765625 C 65.9375 223.023438 67.382812 218.371094 69.164062 218.371094 Z M 160.261719 220.871094 C 163.929688 220.871094 166.902344 228.242188 166.902344 237.332031 C 166.902344 246.421875 163.929688 253.789062 160.261719 253.789062 C 156.59375 253.789062 153.621094 246.421875 153.621094 237.332031 C 153.621094 228.242188 156.59375 220.871094 160.261719 220.871094 Z M 231.820312 119.230469 C 231.820312 119.230469 255.402344 119.617188 260.890625 123.46875 C 266.375 127.316406 267.144531 152.246094 267.144531 152.246094 C 267.144531 152.246094 260.410156 153.835938 257.039062 151.046875 C 255.28125 149.585938 254.359375 143.503906 253.28125 137.242188 C 252.292969 131.507812 251.074219 125.488281 251.074219 125.488281 C 251.074219 125.488281 234.519531 124.71875 231.820312 119.230469 Z M 248.359375 130.6875 L 248.914062 134.824219 C 248.914062 134.824219 243.421875 134.585938 242.394531 133.476562 C 241.921875 132.972656 241.324219 132.199219 242.773438 131.671875 C 244.492188 131.039062 248.359375 130.6875 248.359375 130.6875 Z M 250.03125 141.273438 L 250.59375 145.410156 C 250.59375 145.410156 245.09375 145.171875 244.066406 144.066406 C 243.597656 143.5625 243 142.789062 244.445312 142.257812 C 246.164062 141.628906 250.03125 141.273438 250.03125 141.273438 Z M 250.03125 141.273438 " fill-opacity="1" fill-rule="evenodd"/></g><g clip-path="url(#dbaf5f263c)"><g clip-path="url(#0e88a12541)"><g clip-path="url(#953b578268)"><path fill="#ffdf9f" d="M 47.3125 177.550781 C 44.40625 168.84375 44.640625 158.683594 49.015625 150.488281 C 53.160156 142.726562 60.855469 137.796875 69.171875 136.128906 C 70.402344 135.886719 71.617188 135.679688 72.859375 135.546875 C 72.96875 135.53125 73.613281 135.46875 73.316406 135.492188 C 73.625 135.476562 73.941406 135.441406 74.246094 135.441406 C 74.863281 135.40625 75.496094 135.394531 76.113281 135.410156 C 77.359375 135.429688 78.601562 135.5 79.820312 135.644531 C 80.390625 135.714844 80.96875 135.800781 81.542969 135.90625 C 81.925781 135.980469 81.226562 135.835938 81.621094 135.929688 C 81.777344 135.964844 81.917969 135.996094 82.078125 136.03125 C 82.554688 136.117188 82.996094 136.164062 83.480469 136.183594 C 84.550781 136.214844 85.519531 135.46875 85.699219 134.410156 C 85.882812 133.273438 85.269531 132.414062 84.253906 131.960938 C 83.09375 131.429688 81.753906 131.296875 80.488281 131.132812 C 79.335938 130.992188 78.167969 130.898438 77.007812 130.875 C 74.59375 130.824219 72.167969 131.011719 69.796875 131.433594 C 65.214844 132.230469 60.683594 134.089844 56.835938 136.664062 C 52.769531 139.386719 49.335938 142.90625 46.878906 147.15625 C 44.324219 151.605469 42.765625 156.515625 42.277344 161.625 C 41.722656 167.390625 42.566406 173.121094 44.726562 178.492188 C 45.3125 179.898438 47.804688 179.042969 47.3125 177.550781 Z M 47.3125 177.550781 " fill-opacity="1" fill-rule="nonzero"/></g></g></g><g clip-path="url(#17f49130a4)"><g clip-path="url(#870d401369)"><g clip-path="url(#4710961464)"><path fill="#ffdf9f" d="M 55.75 124.875 C 52.472656 116.097656 49.148438 107.324219 45.660156 98.632812 C 45.027344 97.054688 42.308594 97.988281 42.832031 99.632812 C 45.765625 108.683594 49.429688 117.449219 53.09375 126.21875 C 53.410156 126.960938 54.40625 127.222656 55.09375 126.871094 C 55.863281 126.480469 56.019531 125.640625 55.75 124.875 Z M 55.75 124.875 " fill-opacity="1" fill-rule="nonzero"/></g></g></g><g clip-path="url(#b8bfa9fdf4)"><g clip-path="url(#213f2f4f0d)"><g clip-path="url(#90151f2ab5)"><path fill="#ffdf9f" d="M 41.6875 133.511719 C 36.058594 128.679688 30.265625 124.027344 24.523438 119.328125 C 22.941406 118.03125 21.304688 116.835938 19.582031 115.699219 C 18.304688 114.855469 16.699219 116.613281 17.796875 117.75 C 20.203125 120.242188 22.851562 122.375 25.558594 124.53125 C 28.183594 126.621094 30.792969 128.710938 33.421875 130.789062 C 35.625 132.523438 37.828125 134.257812 40.019531 136.023438 C 40.648438 136.53125 41.675781 136.226562 42.097656 135.605469 C 42.601562 134.839844 42.304688 134.050781 41.6875 133.511719 Z M 41.6875 133.511719 " fill-opacity="1" fill-rule="nonzero"/></g></g></g><g clip-path="url(#01fa073106)"><g clip-path="url(#9be83eb619)"><g clip-path="url(#af2988f673)"><path fill="#ffdf9f" d="M 34.628906 148.664062 C 30.554688 147.433594 26.492188 146.171875 22.457031 144.882812 C 20.484375 144.253906 18.511719 143.625 16.53125 143.007812 C 14.441406 142.375 12.332031 141.855469 10.222656 141.28125 C 8.546875 140.832031 7.800781 143.15625 9.378906 143.808594 C 11.339844 144.636719 13.308594 145.484375 15.3125 146.171875 C 17.308594 146.878906 19.34375 147.527344 21.367188 148.15625 C 25.429688 149.417969 29.523438 150.589844 33.613281 151.710938 C 35.613281 152.265625 36.628906 149.269531 34.628906 148.664062 Z M 34.628906 148.664062 " fill-opacity="1" fill-rule="nonzero"/></g></g></g><g clip-path="url(#70d6d089c8)"><g clip-path="url(#96f9fbff24)"><g clip-path="url(#9c17f686f8)"><path fill="#ffdf9f" d="M 73.710938 121.5 C 74.152344 116.542969 74.601562 111.65625 74.542969 106.6875 C 74.527344 105.652344 72.828125 105.164062 72.601562 106.324219 C 71.640625 111.3125 71.207031 116.304688 70.769531 121.347656 C 70.609375 123.238281 73.539062 123.367188 73.710938 121.5 Z M 73.710938 121.5 " fill-opacity="1" fill-rule="nonzero"/></g></g></g><g clip-path="url(#a75bd32c54)"><g clip-path="url(#6e5549e144)"><g clip-path="url(#2cb6e0c1c2)"><path fill="#ffdf9f" d="M 30.933594 163.25 C 26.011719 163.832031 21.132812 164.398438 16.285156 165.480469 C 15.226562 165.722656 15.28125 167.464844 16.453125 167.441406 C 21.535156 167.351562 26.515625 166.734375 31.546875 166.121094 C 32.339844 166.023438 32.828125 165.101562 32.675781 164.378906 C 32.492188 163.539062 31.726562 163.152344 30.933594 163.25 Z M 30.933594 163.25 " fill-opacity="1" fill-rule="nonzero"/></g></g></g><g fill="#ffffff" fill-opacity="1"><g transform="translate(110.050779, 310.034512)"><g><path d="M 22.296875 -0.015625 C 22.296875 -0.015625 22.328125 -0.0507812 22.390625 -0.125 C 22.453125 -0.195312 22.5 -0.335938 22.53125 -0.546875 C 22.570312 -0.765625 22.5625 -1.070312 22.5 -1.46875 C 22.4375 -1.863281 22.273438 -2.390625 22.015625 -3.046875 L 19.53125 -9.390625 L 5.640625 -9.390625 L 3.125 -3.046875 C 2.882812 -2.390625 2.726562 -1.863281 2.65625 -1.46875 C 2.59375 -1.070312 2.578125 -0.765625 2.609375 -0.546875 C 2.648438 -0.335938 2.695312 -0.195312 2.75 -0.125 C 2.8125 -0.0507812 2.84375 -0.015625 2.84375 -0.015625 L 0.546875 -0.015625 C 0.546875 -0.015625 0.648438 -0.0859375 0.859375 -0.234375 C 1.066406 -0.378906 1.328125 -0.671875 1.640625 -1.109375 C 1.960938 -1.546875 2.289062 -2.191406 2.625 -3.046875 L 13.65625 -31.171875 L 24.671875 -3.046875 C 25.015625 -2.191406 25.34375 -1.546875 25.65625 -1.109375 C 25.976562 -0.671875 26.238281 -0.378906 26.4375 -0.234375 C 26.644531 -0.0859375 26.75 -0.015625 26.75 -0.015625 Z M 5.828125 -9.921875 L 19.328125 -9.921875 L 12.578125 -27.171875 Z M 5.828125 -9.921875 "/></g></g></g><g fill="#ffffff" fill-opacity="1"><g transform="translate(137.767017, 310.034512)"><g><path d="M 12.09375 -15.21875 C 12.09375 -15.21875 12.019531 -15.332031 11.875 -15.5625 C 11.726562 -15.789062 11.46875 -16.046875 11.09375 -16.328125 C 10.726562 -16.609375 10.203125 -16.859375 9.515625 -17.078125 C 8.828125 -17.304688 7.9375 -17.421875 6.84375 -17.421875 L 4.109375 -17.421875 L 4.109375 -3.046875 C 4.109375 -2.191406 4.179688 -1.546875 4.328125 -1.109375 C 4.484375 -0.671875 4.632812 -0.378906 4.78125 -0.234375 C 4.925781 -0.0859375 5 -0.015625 5 -0.015625 L 0.546875 -0.015625 C 0.546875 -0.015625 0.617188 -0.0859375 0.765625 -0.234375 C 0.921875 -0.378906 1.070312 -0.671875 1.21875 -1.109375 C 1.375 -1.546875 1.453125 -2.191406 1.453125 -3.046875 L 1.453125 -28.296875 C 1.453125 -29.171875 1.375 -29.804688 1.21875 -30.203125 C 1.070312 -30.609375 0.921875 -30.875 0.765625 -31 C 0.617188 -31.125 0.546875 -31.1875 0.546875 -31.1875 L 20.1875 -31.1875 L 21.078125 -27.03125 C 21.078125 -27.03125 21.003906 -27.140625 20.859375 -27.359375 C 20.710938 -27.585938 20.425781 -27.863281 20 -28.1875 C 19.570312 -28.519531 18.941406 -28.84375 18.109375 -29.15625 C 17.273438 -29.476562 16.171875 -29.75 14.796875 -29.96875 C 13.429688 -30.195312 11.734375 -30.3125 9.703125 -30.3125 L 4.375 -30.3125 C 4.300781 -30.113281 4.238281 -29.847656 4.1875 -29.515625 C 4.132812 -29.179688 4.109375 -28.78125 4.109375 -28.3125 L 4.109375 -18.15625 L 6.84375 -18.15625 C 7.9375 -18.15625 8.828125 -18.265625 9.515625 -18.484375 C 10.203125 -18.710938 10.726562 -18.96875 11.09375 -19.25 C 11.46875 -19.539062 11.726562 -19.796875 11.875 -20.015625 C 12.019531 -20.242188 12.09375 -20.359375 12.09375 -20.359375 Z M 12.09375 -15.21875 "/></g></g></g><g fill="#ffffff" fill-opacity="1"><g transform="translate(159.809584, 310.034512)"><g><path d="M 20.15625 -3.046875 C 20.695312 -2.191406 21.171875 -1.546875 21.578125 -1.109375 C 21.992188 -0.671875 22.320312 -0.378906 22.5625 -0.234375 C 22.800781 -0.0859375 22.921875 -0.015625 22.921875 -0.015625 L 18.46875 -0.015625 C 18.46875 -0.015625 18.488281 -0.0507812 18.53125 -0.125 C 18.570312 -0.195312 18.585938 -0.335938 18.578125 -0.546875 C 18.578125 -0.765625 18.5 -1.070312 18.34375 -1.46875 C 18.195312 -1.863281 17.925781 -2.390625 17.53125 -3.046875 L 11.984375 -12.09375 C 11.984375 -12.09375 11.789062 -12.09375 11.40625 -12.09375 C 11.019531 -12.09375 10.53125 -12.09375 9.9375 -12.09375 C 9.34375 -12.09375 8.707031 -12.09375 8.03125 -12.09375 C 7.363281 -12.09375 6.726562 -12.09375 6.125 -12.09375 C 5.53125 -12.09375 5.046875 -12.09375 4.671875 -12.09375 C 4.296875 -12.09375 4.109375 -12.09375 4.109375 -12.09375 L 4.109375 -2.890625 C 4.109375 -2.035156 4.179688 -1.398438 4.328125 -0.984375 C 4.484375 -0.578125 4.632812 -0.3125 4.78125 -0.1875 C 4.925781 -0.0703125 5 -0.015625 5 -0.015625 L 0.546875 -0.015625 C 0.546875 -0.015625 0.617188 -0.078125 0.765625 -0.203125 C 0.921875 -0.328125 1.070312 -0.59375 1.21875 -1 C 1.375 -1.414062 1.453125 -2.054688 1.453125 -2.921875 L 1.453125 -28.140625 C 1.453125 -29.015625 1.375 -29.664062 1.21875 -30.09375 C 1.070312 -30.519531 0.921875 -30.804688 0.765625 -30.953125 C 0.617188 -31.097656 0.546875 -31.171875 0.546875 -31.171875 C 0.546875 -31.171875 0.765625 -31.171875 1.203125 -31.171875 C 1.648438 -31.171875 2.242188 -31.171875 2.984375 -31.171875 C 3.722656 -31.171875 4.535156 -31.171875 5.421875 -31.171875 C 6.304688 -31.171875 7.203125 -31.171875 8.109375 -31.171875 C 9.015625 -31.171875 9.851562 -31.171875 10.625 -31.171875 C 11.394531 -31.171875 12.035156 -31.171875 12.546875 -31.171875 C 13.054688 -31.171875 13.351562 -31.171875 13.4375 -31.171875 C 14.863281 -31.171875 16.210938 -30.957031 17.484375 -30.53125 C 18.765625 -30.101562 19.894531 -29.484375 20.875 -28.671875 C 21.851562 -27.867188 22.625 -26.898438 23.1875 -25.765625 C 23.75 -24.628906 24.03125 -23.347656 24.03125 -21.921875 C 24.03125 -20.054688 23.710938 -18.4375 23.078125 -17.0625 C 22.441406 -15.6875 21.429688 -14.59375 20.046875 -13.78125 C 18.660156 -12.976562 16.835938 -12.457031 14.578125 -12.21875 Z M 10.53125 -12.875 C 12.050781 -12.875 13.457031 -12.992188 14.75 -13.234375 C 16.050781 -13.472656 17.191406 -13.910156 18.171875 -14.546875 C 19.148438 -15.179688 19.910156 -16.085938 20.453125 -17.265625 C 20.992188 -18.441406 21.265625 -19.972656 21.265625 -21.859375 C 21.265625 -23.367188 20.988281 -24.65625 20.4375 -25.71875 C 19.894531 -26.78125 19.164062 -27.640625 18.25 -28.296875 C 17.332031 -28.960938 16.316406 -29.445312 15.203125 -29.75 C 14.097656 -30.050781 12.988281 -30.203125 11.875 -30.203125 L 4.375 -30.203125 C 4.300781 -29.992188 4.238281 -29.71875 4.1875 -29.375 C 4.132812 -29.03125 4.109375 -28.617188 4.109375 -28.140625 L 4.109375 -12.875 Z M 10.53125 -12.875 "/></g></g></g><g fill="#ffffff" fill-opacity="1"><g transform="translate(184.808548, 310.034512)"><g><path d="M 0.546875 -0.015625 C 0.546875 -0.015625 0.617188 -0.0859375 0.765625 -0.234375 C 0.921875 -0.378906 1.070312 -0.671875 1.21875 -1.109375 C 1.375 -1.546875 1.453125 -2.191406 1.453125 -3.046875 L 1.453125 -28.296875 C 1.453125 -29.171875 1.375 -29.804688 1.21875 -30.203125 C 1.070312 -30.609375 0.921875 -30.875 0.765625 -31 C 0.617188 -31.125 0.546875 -31.1875 0.546875 -31.1875 L 5 -31.1875 C 5 -31.1875 4.925781 -31.128906 4.78125 -31.015625 C 4.632812 -30.898438 4.484375 -30.640625 4.328125 -30.234375 C 4.179688 -29.828125 4.109375 -29.1875 4.109375 -28.3125 L 4.109375 -3.046875 C 4.109375 -2.191406 4.179688 -1.546875 4.328125 -1.109375 C 4.484375 -0.671875 4.632812 -0.378906 4.78125 -0.234375 C 4.925781 -0.0859375 5 -0.015625 5 -0.015625 Z M 0.546875 -0.015625 "/></g></g></g><g fill="#ffffff" fill-opacity="1"><g transform="translate(190.786564, 310.034512)"><g><path d="M 15.6875 -18.828125 C 17.664062 -18.523438 19.269531 -17.957031 20.5 -17.125 C 21.726562 -16.289062 22.625 -15.21875 23.1875 -13.90625 C 23.75 -12.59375 24.03125 -11.050781 24.03125 -9.28125 C 24.03125 -7.863281 23.75 -6.582031 23.1875 -5.4375 C 22.632812 -4.289062 21.863281 -3.316406 20.875 -2.515625 C 19.894531 -1.710938 18.769531 -1.09375 17.5 -0.65625 C 16.226562 -0.226562 14.882812 -0.015625 13.46875 -0.015625 L 0.546875 -0.015625 C 0.546875 -0.015625 0.617188 -0.0859375 0.765625 -0.234375 C 0.921875 -0.378906 1.070312 -0.671875 1.21875 -1.109375 C 1.375 -1.546875 1.453125 -2.191406 1.453125 -3.046875 L 1.453125 -28.296875 C 1.453125 -29.171875 1.375 -29.804688 1.21875 -30.203125 C 1.070312 -30.609375 0.921875 -30.867188 0.765625 -30.984375 C 0.617188 -31.109375 0.546875 -31.171875 0.546875 -31.171875 L 7.3125 -31.171875 C 9.394531 -31.171875 11.269531 -31.09375 12.9375 -30.9375 C 14.601562 -30.789062 16.03125 -30.5 17.21875 -30.0625 C 18.414062 -29.632812 19.332031 -29.015625 19.96875 -28.203125 C 20.601562 -27.390625 20.925781 -26.316406 20.9375 -24.984375 C 20.96875 -23.722656 20.753906 -22.679688 20.296875 -21.859375 C 19.847656 -21.035156 19.222656 -20.378906 18.421875 -19.890625 C 17.617188 -19.398438 16.707031 -19.046875 15.6875 -18.828125 Z M 4.109375 -28.3125 L 4.109375 -17.9375 C 4.734375 -18.226562 5.632812 -18.492188 6.8125 -18.734375 C 8 -18.972656 9.625 -19.09375 11.6875 -19.09375 C 12.96875 -19.09375 14.097656 -19.28125 15.078125 -19.65625 C 16.054688 -20.039062 16.816406 -20.660156 17.359375 -21.515625 C 17.910156 -22.378906 18.1875 -23.550781 18.1875 -25.03125 C 18.195312 -26.976562 17.332031 -28.347656 15.59375 -29.140625 C 13.863281 -29.941406 11.3125 -30.34375 7.9375 -30.34375 L 4.375 -30.34375 C 4.300781 -30.125 4.238281 -29.847656 4.1875 -29.515625 C 4.132812 -29.191406 4.109375 -28.789062 4.109375 -28.3125 Z M 11.890625 -0.984375 C 13.015625 -0.984375 14.125 -1.132812 15.21875 -1.4375 C 16.320312 -1.738281 17.332031 -2.21875 18.25 -2.875 C 19.164062 -3.539062 19.894531 -4.40625 20.4375 -5.46875 C 20.988281 -6.53125 21.265625 -7.816406 21.265625 -9.328125 C 21.265625 -11.210938 20.972656 -12.753906 20.390625 -13.953125 C 19.804688 -15.160156 19 -16.09375 17.96875 -16.75 C 16.945312 -17.414062 15.765625 -17.878906 14.421875 -18.140625 C 13.085938 -18.398438 11.664062 -18.53125 10.15625 -18.53125 C 8.90625 -18.53125 7.878906 -18.441406 7.078125 -18.265625 C 6.273438 -18.097656 5.632812 -17.878906 5.15625 -17.609375 C 4.6875 -17.347656 4.335938 -17.097656 4.109375 -16.859375 L 4.109375 -3.046875 C 4.109375 -2.566406 4.132812 -2.15625 4.1875 -1.8125 C 4.238281 -1.476562 4.304688 -1.203125 4.390625 -0.984375 Z M 11.890625 -0.984375 "/></g></g></g><g fill="#ffffff" fill-opacity="1"><g transform="translate(215.785529, 310.034512)"><g><path d="M 1.453125 -10.328125 L 1.453125 -28.140625 C 1.453125 -29.015625 1.375 -29.664062 1.21875 -30.09375 C 1.070312 -30.53125 0.921875 -30.820312 0.765625 -30.96875 C 0.617188 -31.113281 0.546875 -31.1875 0.546875 -31.1875 L 5 -31.1875 C 5 -31.1875 4.925781 -31.113281 4.78125 -30.96875 C 4.632812 -30.820312 4.484375 -30.53125 4.328125 -30.09375 C 4.179688 -29.664062 4.109375 -29.015625 4.109375 -28.140625 C 4.109375 -28.140625 4.109375 -28.132812 4.109375 -28.125 C 4.109375 -28.125 4.109375 -28.054688 4.109375 -27.921875 C 4.109375 -27.796875 4.109375 -27.535156 4.109375 -27.140625 C 4.109375 -26.753906 4.109375 -26.1875 4.109375 -25.4375 C 4.109375 -24.6875 4.109375 -23.691406 4.109375 -22.453125 C 4.109375 -21.210938 4.109375 -19.671875 4.109375 -17.828125 C 4.109375 -15.992188 4.109375 -13.789062 4.109375 -11.21875 C 4.109375 -9.207031 4.414062 -7.4375 5.03125 -5.90625 C 5.644531 -4.375 6.597656 -3.179688 7.890625 -2.328125 C 9.179688 -1.472656 10.835938 -1.046875 12.859375 -1.046875 C 14.191406 -1.046875 15.390625 -1.238281 16.453125 -1.625 C 17.515625 -2.007812 18.425781 -2.625 19.1875 -3.46875 C 19.957031 -4.3125 20.539062 -5.425781 20.9375 -6.8125 C 21.34375 -8.195312 21.546875 -9.890625 21.546875 -11.890625 L 21.546875 -28.296875 C 21.546875 -29.171875 21.472656 -29.804688 21.328125 -30.203125 C 21.191406 -30.609375 21.046875 -30.875 20.890625 -31 C 20.734375 -31.125 20.65625 -31.1875 20.65625 -31.1875 L 22.96875 -31.1875 C 22.96875 -31.1875 22.890625 -31.128906 22.734375 -31.015625 C 22.585938 -30.898438 22.4375 -30.640625 22.28125 -30.234375 C 22.125 -29.828125 22.046875 -29.1875 22.046875 -28.3125 L 22.046875 -11.640625 C 22.046875 -8.847656 21.71875 -6.597656 21.0625 -4.890625 C 20.414062 -3.191406 19.414062 -1.953125 18.0625 -1.171875 C 16.71875 -0.390625 14.984375 0 12.859375 0 C 9.140625 0 6.316406 -0.859375 4.390625 -2.578125 C 2.472656 -4.296875 1.492188 -6.878906 1.453125 -10.328125 Z M 1.453125 -10.328125 "/></g></g></g><g fill="#ffffff" fill-opacity="1"><g transform="translate(239.719323, 310.034512)"><g><path d="M 20.765625 -8.4375 C 20.765625 -9.457031 20.554688 -10.316406 20.140625 -11.015625 C 19.722656 -11.722656 19.148438 -12.320312 18.421875 -12.8125 C 17.691406 -13.300781 16.863281 -13.722656 15.9375 -14.078125 C 15.007812 -14.429688 14.023438 -14.757812 12.984375 -15.0625 C 11.953125 -15.375 10.914062 -15.691406 9.875 -16.015625 C 8.84375 -16.347656 7.863281 -16.726562 6.9375 -17.15625 C 6.007812 -17.59375 5.179688 -18.125 4.453125 -18.75 C 3.734375 -19.375 3.160156 -20.128906 2.734375 -21.015625 C 2.316406 -21.910156 2.109375 -22.984375 2.109375 -24.234375 C 2.109375 -24.429688 2.15625 -24.738281 2.25 -25.15625 C 2.34375 -25.570312 2.507812 -26.039062 2.75 -26.5625 C 3 -27.082031 3.359375 -27.613281 3.828125 -28.15625 C 4.296875 -28.695312 4.894531 -29.191406 5.625 -29.640625 C 6.351562 -30.085938 7.25 -30.453125 8.3125 -30.734375 C 9.382812 -31.023438 10.644531 -31.171875 12.09375 -31.171875 C 13.457031 -31.171875 14.722656 -31.054688 15.890625 -30.828125 C 17.066406 -30.609375 18.09375 -30.34375 18.96875 -30.03125 C 19.851562 -29.726562 20.539062 -29.460938 21.03125 -29.234375 C 21.519531 -29.015625 21.765625 -28.90625 21.765625 -28.90625 L 20.90625 -24.125 C 20.90625 -24.125 20.859375 -24.269531 20.765625 -24.5625 C 20.679688 -24.863281 20.519531 -25.253906 20.28125 -25.734375 C 20.050781 -26.210938 19.722656 -26.710938 19.296875 -27.234375 C 18.867188 -27.765625 18.316406 -28.269531 17.640625 -28.75 C 16.972656 -29.226562 16.15625 -29.613281 15.1875 -29.90625 C 14.226562 -30.207031 13.085938 -30.359375 11.765625 -30.359375 C 11.015625 -30.359375 10.234375 -30.253906 9.421875 -30.046875 C 8.617188 -29.835938 7.875 -29.5 7.1875 -29.03125 C 6.5 -28.570312 5.941406 -27.945312 5.515625 -27.15625 C 5.085938 -26.375 4.875 -25.40625 4.875 -24.25 C 4.875 -23.28125 5.085938 -22.453125 5.515625 -21.765625 C 5.953125 -21.085938 6.546875 -20.507812 7.296875 -20.03125 C 8.054688 -19.550781 8.914062 -19.132812 9.875 -18.78125 C 10.84375 -18.425781 11.867188 -18.097656 12.953125 -17.796875 C 14.035156 -17.503906 15.113281 -17.191406 16.1875 -16.859375 C 17.257812 -16.523438 18.273438 -16.144531 19.234375 -15.71875 C 20.203125 -15.289062 21.0625 -14.765625 21.8125 -14.140625 C 22.570312 -13.523438 23.164062 -12.78125 23.59375 -11.90625 C 24.03125 -11.039062 24.25 -10.007812 24.25 -8.8125 C 24.25 -6.707031 23.742188 -5.007812 22.734375 -3.71875 C 21.734375 -2.425781 20.3125 -1.484375 18.46875 -0.890625 C 16.625 -0.296875 14.429688 0 11.890625 0 C 10.367188 0 9.019531 -0.132812 7.84375 -0.40625 C 6.675781 -0.6875 5.664062 -1.039062 4.8125 -1.46875 C 3.957031 -1.90625 3.234375 -2.367188 2.640625 -2.859375 C 2.054688 -3.347656 1.59375 -3.800781 1.25 -4.21875 C 0.90625 -4.632812 0.671875 -4.96875 0.546875 -5.21875 L 2.390625 -8.21875 C 2.460938 -7.945312 2.632812 -7.519531 2.90625 -6.9375 C 3.175781 -6.351562 3.550781 -5.707031 4.03125 -5 C 4.519531 -4.300781 5.128906 -3.628906 5.859375 -2.984375 C 6.585938 -2.335938 7.457031 -1.804688 8.46875 -1.390625 C 9.476562 -0.972656 10.628906 -0.765625 11.921875 -0.765625 C 13.929688 -0.765625 15.585938 -1.078125 16.890625 -1.703125 C 18.203125 -2.335938 19.175781 -3.226562 19.8125 -4.375 C 20.445312 -5.53125 20.765625 -6.882812 20.765625 -8.4375 Z M 20.765625 -8.4375 "/></g></g></g></svg>