<svg xmlns="http://www.w3.org/2000/svg" xmlns:xlink="http://www.w3.org/1999/xlink" width="500" zoomAndPan="magnify" viewBox="0 0 375 374.999991" height="500" preserveAspectRatio="xMidYMid meet" version="1.0"><defs><g/><clipPath id="1f19fb69b4"><path d="M 19.460938 1 L 355 1 L 355 337.332031 L 19.460938 337.332031 Z M 19.460938 1 " clip-rule="nonzero"/></clipPath></defs><g clip-path="url(#1f19fb69b4)"><path fill="#ffffff" d="M 181.566406 22.730469 C 158.714844 28.082031 136.140625 38.476562 115.847656 51.070312 C 114.074219 52.167969 112.019531 53.265625 109.6875 54.367188 C 103.527344 57.28125 96.179688 57.378906 92.632812 50.863281 C 88.621094 43.507812 92.140625 35.28125 98.09375 29.929688 C 106.507812 22.367188 117.699219 16.511719 127.996094 12.5625 C 157.789062 1.121094 188.542969 -1.363281 220.257812 5.105469 C 252.960938 11.777344 281.242188 26.410156 305.101562 49 C 323.195312 66.148438 336.902344 88.515625 345.0625 111.890625 C 363.757812 165.382812 356.21875 226.457031 320.265625 271.019531 C 297.253906 299.542969 267.730469 319.183594 231.695312 329.941406 C 215.8125 334.679688 199.984375 337.125 184.210938 337.28125 C 164.21875 337.464844 141.984375 333.386719 127.078125 318.925781 C 119.824219 311.882812 115.855469 303.273438 115.179688 293.09375 C 114.632812 284.800781 115.210938 276.175781 116.921875 267.21875 C 120.414062 248.867188 126.621094 231.394531 135.542969 214.796875 C 144.015625 199.027344 153.550781 183.988281 164.144531 169.675781 C 174.226562 156.050781 182.644531 144.324219 189.394531 134.496094 C 193.394531 128.671875 196.777344 123.132812 199.535156 117.886719 C 200.320312 116.386719 200.929688 114.789062 201.363281 113.082031 C 202.800781 107.472656 199.539062 102.710938 193.945312 101.230469 C 189.796875 100.128906 185.132812 99.679688 179.949219 99.878906 C 163.460938 100.539062 148.285156 105.132812 134.421875 113.660156 C 118.40625 123.507812 106.175781 136.613281 97.730469 152.96875 C 84.683594 178.253906 82.289062 208.339844 89.214844 235.898438 C 91.777344 246.121094 96.566406 255.867188 98.027344 266.164062 C 99.480469 276.414062 94.839844 289.15625 82.929688 290.34375 C 70.914062 291.542969 59.867188 278.667969 53.566406 270.035156 C 30.832031 238.875 19.5625 204.261719 19.765625 166.191406 C 19.792969 160.945312 20.0625 156.019531 20.582031 151.414062 C 24.523438 116.542969 37.691406 85.753906 60.082031 59.039062 C 63.46875 55 67.410156 50.75 71.90625 46.28125 C 72.050781 46.136719 72.214844 46.050781 72.402344 46.015625 C 72.480469 46 72.542969 46.027344 72.589844 46.085938 C 72.640625 46.148438 72.644531 46.214844 72.609375 46.28125 C 65.488281 60.453125 59.707031 75.0625 55.265625 90.109375 C 53.566406 95.863281 52.0625 101.675781 53.203125 107.558594 C 54.449219 113.957031 60.128906 118.054688 66.546875 116.375 C 70.980469 115.210938 74.960938 112.910156 78.488281 109.464844 C 84.230469 103.867188 90.003906 98.320312 95.8125 92.824219 C 129.0625 61.375 171.878906 36.621094 218.863281 38.429688 C 235.285156 39.0625 252.488281 44.175781 261.695312 58.1875 C 267.34375 66.792969 268.144531 77.53125 263.175781 86.628906 C 261.289062 90.085938 259.027344 93.3125 256.394531 96.308594 C 248.476562 105.292969 240.027344 114.113281 231.042969 122.769531 C 220.910156 132.535156 209.554688 143.792969 196.984375 156.550781 C 190.328125 163.304688 183.722656 170.78125 177.171875 178.980469 C 166.6875 192.097656 158.457031 205.480469 152.472656 219.125 C 148.503906 228.164062 146.144531 236.878906 145.394531 245.277344 C 143.671875 264.40625 152.078125 280.746094 171.707031 285.679688 C 192.609375 290.945312 215.21875 284.117188 233.867188 274.511719 C 289.195312 246.011719 327.953125 190.734375 323.460938 126.949219 C 320.972656 91.601562 303.546875 59.417969 274.808594 38.757812 C 258.148438 26.777344 239.332031 20.257812 218.359375 19.195312 C 215.871094 19.074219 213.378906 19.058594 210.882812 19.152344 C 208.5 19.242188 206.136719 19.332031 203.789062 19.425781 C 197.289062 19.679688 189.882812 20.78125 181.566406 22.730469 Z M 181.566406 22.730469 " fill-opacity="1" fill-rule="nonzero"/></g><g fill="#ffffff" fill-opacity="1"><g transform="translate(117.541108, 361.223311)"><g><path d="M 16.5 -19.734375 C 17.195312 -19.078125 17.78125 -18.144531 18.25 -16.9375 C 18.726562 -15.738281 19.046875 -14.328125 19.203125 -12.703125 C 19.359375 -11.078125 19.3125 -9.285156 19.0625 -7.328125 C 18.820312 -5.378906 18.328125 -3.316406 17.578125 -1.140625 C 16.828125 1.046875 16 2.921875 15.09375 4.484375 C 14.195312 6.054688 13.265625 7.335938 12.296875 8.328125 C 11.328125 9.316406 10.363281 10.046875 9.40625 10.515625 C 8.445312 10.992188 7.546875 11.234375 6.703125 11.234375 C 6.234375 11.234375 5.800781 11.171875 5.40625 11.046875 C 4.394531 10.734375 3.546875 10.085938 2.859375 9.109375 C 2.171875 8.140625 1.679688 6.894531 1.390625 5.375 C 1.085938 3.707031 1.035156 1.789062 1.234375 -0.375 C 1.441406 -2.539062 1.894531 -4.882812 2.59375 -7.40625 C 2.90625 -8.507812 3.28125 -9.628906 3.71875 -10.765625 C 4.164062 -11.898438 4.675781 -12.960938 5.25 -13.953125 C 5.832031 -14.941406 6.460938 -15.789062 7.140625 -16.5 C 7.828125 -17.21875 8.550781 -17.703125 9.3125 -17.953125 C 9.582031 -18.046875 9.847656 -18.109375 10.109375 -18.140625 C 10.941406 -19.347656 11.847656 -20.148438 12.828125 -20.546875 C 14.148438 -21.066406 15.375 -20.796875 16.5 -19.734375 Z M 16.765625 -1.421875 C 17.460938 -3.484375 17.929688 -5.445312 18.171875 -7.3125 C 18.421875 -9.1875 18.476562 -10.898438 18.34375 -12.453125 C 18.207031 -14.003906 17.925781 -15.347656 17.5 -16.484375 C 17.070312 -17.628906 16.539062 -18.503906 15.90625 -19.109375 C 15.601562 -19.390625 15.21875 -19.625 14.75 -19.8125 C 14.28125 -20 13.742188 -19.972656 13.140625 -19.734375 C 12.804688 -19.597656 12.46875 -19.390625 12.125 -19.109375 C 11.789062 -18.835938 11.460938 -18.488281 11.140625 -18.0625 C 11.660156 -17.945312 12.171875 -17.691406 12.671875 -17.296875 C 12.753906 -17.222656 12.800781 -17.125 12.8125 -17 C 12.832031 -16.882812 12.804688 -16.78125 12.734375 -16.6875 C 12.660156 -16.601562 12.566406 -16.550781 12.453125 -16.53125 C 12.335938 -16.519531 12.226562 -16.550781 12.125 -16.625 C 11.613281 -17.019531 11.101562 -17.226562 10.59375 -17.25 C 9.875 -16.125 9.195312 -14.59375 8.5625 -12.65625 C 7.9375 -10.726562 7.398438 -8.347656 6.953125 -5.515625 C 6.515625 -2.691406 6.207031 0.640625 6.03125 4.484375 C 6.03125 4.597656 5.984375 4.695312 5.890625 4.78125 C 5.804688 4.863281 5.703125 4.90625 5.578125 4.90625 C 5.460938 4.882812 5.363281 4.828125 5.28125 4.734375 C 5.195312 4.648438 5.160156 4.554688 5.171875 4.453125 C 5.378906 -0.460938 5.859375 -4.757812 6.609375 -8.4375 C 7.359375 -12.113281 8.3125 -15 9.46875 -17.09375 C 8.71875 -16.8125 7.972656 -16.21875 7.234375 -15.3125 C 6.492188 -14.40625 5.789062 -13.253906 5.125 -11.859375 C 4.46875 -10.460938 3.898438 -8.898438 3.421875 -7.171875 C 2.679688 -4.515625 2.226562 -2.160156 2.0625 -0.109375 C 1.90625 1.941406 1.957031 3.6875 2.21875 5.125 C 2.488281 6.570312 2.925781 7.71875 3.53125 8.5625 C 4.132812 9.40625 4.835938 9.957031 5.640625 10.21875 C 6.441406 10.46875 7.328125 10.421875 8.296875 10.078125 C 9.265625 9.734375 10.25 9.082031 11.25 8.125 C 12.25 7.164062 13.222656 5.894531 14.171875 4.3125 C 15.117188 2.726562 15.984375 0.816406 16.765625 -1.421875 Z M 16.765625 -1.421875 "/></g></g></g><g fill="#ffffff" fill-opacity="1"><g transform="translate(138.213076, 361.223311)"><g><path d="M 19.890625 -21.640625 C 20.085938 -21.585938 20.1875 -21.46875 20.1875 -21.28125 C 20.195312 -21.09375 20.1875 -20.898438 20.15625 -20.703125 C 20.09375 -20.398438 20.003906 -19.960938 19.890625 -19.390625 C 19.765625 -18.835938 19.613281 -18.175781 19.4375 -17.40625 C 19.269531 -16.644531 19.082031 -15.804688 18.875 -14.890625 C 18.5625 -13.523438 18.210938 -12.007812 17.828125 -10.34375 C 17.441406 -8.6875 17.054688 -6.960938 16.671875 -5.171875 C 16.296875 -3.390625 15.9375 -1.632812 15.59375 0.09375 C 15.257812 1.832031 14.972656 3.457031 14.734375 4.96875 C 14.492188 6.488281 14.332031 7.800781 14.25 8.90625 C 14.164062 9.945312 14.207031 10.707031 14.375 11.1875 C 14.539062 11.675781 14.675781 11.9375 14.78125 11.96875 C 14.820312 11.988281 14.898438 11.945312 15.015625 11.84375 C 15.140625 11.75 15.289062 11.554688 15.46875 11.265625 C 15.644531 10.984375 15.835938 10.550781 16.046875 9.96875 C 16.085938 9.84375 16.160156 9.753906 16.265625 9.703125 C 16.367188 9.648438 16.484375 9.648438 16.609375 9.703125 C 16.710938 9.734375 16.789062 9.800781 16.84375 9.90625 C 16.894531 10.019531 16.898438 10.128906 16.859375 10.234375 C 16.253906 11.972656 15.578125 12.84375 14.828125 12.84375 C 14.753906 12.84375 14.679688 12.835938 14.609375 12.828125 C 14.140625 12.722656 13.796875 12.3125 13.578125 11.59375 C 13.359375 10.882812 13.296875 9.96875 13.390625 8.84375 C 13.460938 7.851562 13.59375 6.707031 13.78125 5.40625 C 13.976562 4.113281 14.21875 2.722656 14.5 1.234375 C 14.78125 -0.242188 15.082031 -1.769531 15.40625 -3.34375 C 15.738281 -4.925781 16.078125 -6.492188 16.421875 -8.046875 C 16.765625 -9.597656 17.101562 -11.085938 17.4375 -12.515625 C 16.5625 -9.960938 15.671875 -7.601562 14.765625 -5.4375 C 13.859375 -3.28125 12.941406 -1.347656 12.015625 0.359375 C 10.785156 2.640625 9.582031 4.4375 8.40625 5.75 C 7.238281 7.070312 6.144531 7.863281 5.125 8.125 C 4.164062 8.34375 3.359375 8.101562 2.703125 7.40625 C 2.023438 6.6875 1.566406 5.5625 1.328125 4.03125 C 1.085938 2.5 1.050781 0.632812 1.21875 -1.5625 C 1.394531 -3.757812 1.769531 -6.21875 2.34375 -8.9375 C 2.925781 -11.664062 3.707031 -14.570312 4.6875 -17.65625 C 4.707031 -17.78125 4.769531 -17.867188 4.875 -17.921875 C 4.988281 -17.972656 5.101562 -17.984375 5.21875 -17.953125 C 5.34375 -17.910156 5.429688 -17.835938 5.484375 -17.734375 C 5.535156 -17.628906 5.546875 -17.523438 5.515625 -17.421875 C 4.078125 -12.828125 3.09375 -8.851562 2.5625 -5.5 C 2.039062 -2.144531 1.867188 0.5625 2.046875 2.625 C 2.222656 4.695312 2.648438 6.085938 3.328125 6.796875 C 3.765625 7.265625 4.296875 7.421875 4.921875 7.265625 C 5.765625 7.054688 6.734375 6.332031 7.828125 5.09375 C 8.921875 3.851562 10.09375 2.078125 11.34375 -0.234375 C 12.601562 -2.554688 13.890625 -5.429688 15.203125 -8.859375 C 16.523438 -12.296875 17.832031 -16.300781 19.125 -20.875 C 19.125 -20.875 19.125 -20.882812 19.125 -20.90625 C 19.21875 -21.125 19.3125 -21.316406 19.40625 -21.484375 C 19.5 -21.660156 19.660156 -21.710938 19.890625 -21.640625 Z M 19.890625 -21.640625 "/></g></g></g><g fill="#ffffff" fill-opacity="1"><g transform="translate(157.917804, 361.223311)"><g><path d="M 21.984375 -5.15625 C 22.054688 -5.050781 22.082031 -4.941406 22.0625 -4.828125 C 22.039062 -4.710938 21.976562 -4.617188 21.875 -4.546875 C 19.539062 -2.878906 17.414062 -1.300781 15.5 0.1875 C 15.695312 0.800781 15.71875 1.472656 15.5625 2.203125 C 15.320312 3.484375 14.890625 4.671875 14.265625 5.765625 C 13.648438 6.867188 12.925781 7.875 12.09375 8.78125 C 11.257812 9.6875 10.390625 10.46875 9.484375 11.125 C 8.578125 11.78125 7.707031 12.289062 6.875 12.65625 C 6.050781 13.019531 5.34375 13.226562 4.75 13.28125 C 4.65625 13.289062 4.570312 13.296875 4.5 13.296875 C 4.03125 13.296875 3.695312 13.203125 3.5 13.015625 C 3.3125 12.828125 3.1875 12.648438 3.125 12.484375 C 2.78125 11.535156 3.585938 9.976562 5.546875 7.8125 C 7.503906 5.644531 10.46875 3.007812 14.4375 -0.09375 C 13.945312 -0.976562 12.953125 -1.796875 11.453125 -2.546875 C 9.960938 -3.296875 7.988281 -4.164062 5.53125 -5.15625 C 5.25 -5.269531 4.957031 -5.382812 4.65625 -5.5 C 4.351562 -5.625 4.046875 -5.753906 3.734375 -5.890625 C 2.648438 -6.335938 1.898438 -6.941406 1.484375 -7.703125 C 1.066406 -8.472656 1.015625 -9.351562 1.328125 -10.34375 C 1.566406 -11.113281 1.984375 -11.894531 2.578125 -12.6875 C 3.179688 -13.476562 3.910156 -14.269531 4.765625 -15.0625 C 5.617188 -15.851562 6.546875 -16.601562 7.546875 -17.3125 C 8.554688 -18.019531 9.585938 -18.664062 10.640625 -19.25 C 11.691406 -19.84375 12.71875 -20.34375 13.71875 -20.75 C 14.726562 -21.15625 15.65625 -21.4375 16.5 -21.59375 C 17.351562 -21.757812 18.070312 -21.773438 18.65625 -21.640625 C 18.894531 -21.585938 19.160156 -21.476562 19.453125 -21.3125 C 19.742188 -21.144531 19.972656 -20.875 20.140625 -20.5 C 20.316406 -20.132812 20.367188 -19.628906 20.296875 -18.984375 C 20.265625 -18.867188 20.203125 -18.773438 20.109375 -18.703125 C 20.023438 -18.640625 19.921875 -18.613281 19.796875 -18.625 C 19.679688 -18.644531 19.582031 -18.703125 19.5 -18.796875 C 19.425781 -18.890625 19.398438 -19 19.421875 -19.125 C 19.503906 -19.75 19.429688 -20.164062 19.203125 -20.375 C 18.984375 -20.59375 18.738281 -20.734375 18.46875 -20.796875 C 17.90625 -20.929688 17.15625 -20.882812 16.21875 -20.65625 C 15.28125 -20.425781 14.234375 -20.046875 13.078125 -19.515625 C 11.921875 -18.984375 10.734375 -18.328125 9.515625 -17.546875 C 8.222656 -16.734375 7.0625 -15.890625 6.03125 -15.015625 C 5.007812 -14.140625 4.164062 -13.28125 3.5 -12.4375 C 2.832031 -11.601562 2.382812 -10.828125 2.15625 -10.109375 C 1.664062 -8.554688 2.304688 -7.414062 4.078125 -6.6875 C 4.390625 -6.5625 4.691406 -6.4375 4.984375 -6.3125 C 5.273438 -6.195312 5.570312 -6.082031 5.875 -5.96875 C 7.382812 -5.351562 8.757812 -4.769531 10 -4.21875 C 11.238281 -3.664062 12.296875 -3.101562 13.171875 -2.53125 C 14.046875 -1.96875 14.703125 -1.332031 15.140625 -0.625 C 17.035156 -2.09375 19.113281 -3.632812 21.375 -5.25 C 21.476562 -5.320312 21.585938 -5.34375 21.703125 -5.3125 C 21.816406 -5.289062 21.910156 -5.238281 21.984375 -5.15625 Z M 14.734375 2.03125 C 14.828125 1.570312 14.835938 1.148438 14.765625 0.765625 C 11.566406 3.265625 9.03125 5.46875 7.15625 7.375 C 6.0625 8.5 5.21875 9.5 4.625 10.375 C 4.039062 11.257812 3.8125 11.863281 3.9375 12.1875 C 3.976562 12.3125 4.082031 12.382812 4.25 12.40625 C 4.414062 12.425781 4.5625 12.429688 4.6875 12.421875 C 5.175781 12.390625 5.796875 12.203125 6.546875 11.859375 C 7.296875 11.515625 8.085938 11.035156 8.921875 10.421875 C 9.765625 9.816406 10.582031 9.09375 11.375 8.25 C 12.175781 7.414062 12.875 6.472656 13.46875 5.421875 C 14.070312 4.367188 14.492188 3.238281 14.734375 2.03125 Z M 14.734375 2.03125 "/></g></g></g><g fill="#ffffff" fill-opacity="1"><g transform="translate(179.01716, 361.223311)"><g><path d="M 28.171875 -19.421875 C 28.210938 -18.679688 28.171875 -17.707031 28.046875 -16.5 C 27.929688 -15.289062 27.757812 -13.921875 27.53125 -12.390625 C 27.300781 -10.867188 27.03125 -9.253906 26.71875 -7.546875 C 26.40625 -5.847656 26.09375 -4.132812 25.78125 -2.40625 C 25.570312 -1.207031 25.351562 0.015625 25.125 1.265625 C 24.90625 2.523438 24.703125 3.726562 24.515625 4.875 C 24.328125 6.019531 24.179688 7.03125 24.078125 7.90625 C 23.972656 8.78125 23.925781 9.4375 23.9375 9.875 C 24 9.769531 24.066406 9.660156 24.140625 9.546875 C 24.203125 9.429688 24.285156 9.359375 24.390625 9.328125 C 24.503906 9.304688 24.617188 9.320312 24.734375 9.375 C 24.835938 9.4375 24.898438 9.523438 24.921875 9.640625 C 24.953125 9.753906 24.941406 9.863281 24.890625 9.96875 C 24.703125 10.269531 24.503906 10.539062 24.296875 10.78125 C 24.085938 11.03125 23.84375 11.113281 23.5625 11.03125 C 23.394531 10.945312 23.269531 10.78125 23.1875 10.53125 C 23.101562 10.289062 23.070312 9.890625 23.09375 9.328125 C 23.113281 8.765625 23.191406 7.984375 23.328125 6.984375 C 23.460938 5.984375 23.660156 4.703125 23.921875 3.140625 C 24.191406 1.585938 24.535156 -0.304688 24.953125 -2.546875 C 25.234375 -4.191406 25.523438 -5.851562 25.828125 -7.53125 C 26.128906 -9.21875 26.398438 -10.820312 26.640625 -12.34375 C 26.878906 -13.875 27.0625 -15.25 27.1875 -16.46875 C 27.3125 -17.6875 27.351562 -18.644531 27.3125 -19.34375 C 27.28125 -19.78125 27.21875 -20.097656 27.125 -20.296875 C 27.039062 -20.503906 26.953125 -20.613281 26.859375 -20.625 C 26.859375 -20.625 26.851562 -20.625 26.84375 -20.625 C 26.695312 -20.625 26.4375 -20.460938 26.0625 -20.140625 C 25.6875 -19.828125 25.21875 -19.253906 24.65625 -18.421875 C 24.09375 -17.597656 23.425781 -16.429688 22.65625 -14.921875 C 21.875 -13.359375 20.90625 -11.132812 19.75 -8.25 C 18.59375 -5.363281 17.363281 -1.65625 16.0625 2.875 C 15.988281 3.144531 15.816406 3.25 15.546875 3.1875 C 15.273438 3.132812 15.160156 2.972656 15.203125 2.703125 C 16.253906 -3.472656 16.816406 -8.117188 16.890625 -11.234375 C 16.921875 -12.191406 16.90625 -12.941406 16.84375 -13.484375 C 16.789062 -14.035156 16.71875 -14.429688 16.625 -14.671875 C 16.539062 -14.921875 16.460938 -15.078125 16.390625 -15.140625 C 16.328125 -15.210938 16.285156 -15.257812 16.265625 -15.28125 C 16.253906 -15.28125 16.179688 -15.253906 16.046875 -15.203125 C 15.921875 -15.160156 15.722656 -15.007812 15.453125 -14.75 C 15.179688 -14.5 14.832031 -14.054688 14.40625 -13.421875 C 13.976562 -12.796875 13.460938 -11.90625 12.859375 -10.75 C 12.265625 -9.59375 11.5625 -8.09375 10.75 -6.25 C 9.925781 -4.34375 9.097656 -2.285156 8.265625 -0.078125 C 7.429688 2.128906 6.628906 4.394531 5.859375 6.71875 C 5.097656 9.050781 4.40625 11.332031 3.78125 13.5625 C 3.78125 13.5625 3.78125 13.570312 3.78125 13.59375 C 3.675781 13.863281 3.566406 14.101562 3.453125 14.3125 C 3.335938 14.519531 3.191406 14.625 3.015625 14.625 C 2.972656 14.625 2.921875 14.617188 2.859375 14.609375 C 2.648438 14.523438 2.539062 14.359375 2.53125 14.109375 C 2.519531 13.867188 2.550781 13.484375 2.625 12.953125 C 2.738281 12.253906 2.921875 11.242188 3.171875 9.921875 C 3.617188 7.660156 4.28125 4.554688 5.15625 0.609375 C 5.539062 -1.203125 5.929688 -2.988281 6.328125 -4.75 C 6.734375 -6.519531 7.109375 -8.15625 7.453125 -9.65625 C 7.796875 -11.164062 8.09375 -12.460938 8.34375 -13.546875 C 8.601562 -14.628906 8.785156 -15.382812 8.890625 -15.8125 C 9.128906 -16.851562 9.25 -17.640625 9.25 -18.171875 C 9.257812 -18.703125 9.21875 -19.070312 9.125 -19.28125 C 9.03125 -19.488281 8.953125 -19.617188 8.890625 -19.671875 C 8.722656 -19.773438 8.46875 -19.757812 8.125 -19.625 C 7.789062 -19.488281 7.40625 -19.253906 6.96875 -18.921875 C 6.382812 -18.472656 5.785156 -17.890625 5.171875 -17.171875 C 4.554688 -16.453125 3.972656 -15.660156 3.421875 -14.796875 C 2.878906 -13.941406 2.414062 -13.078125 2.03125 -12.203125 C 1.65625 -11.328125 1.394531 -10.484375 1.25 -9.671875 C 1.101562 -8.859375 1.132812 -8.144531 1.34375 -7.53125 C 1.78125 -6.25 3.023438 -5.59375 5.078125 -5.5625 C 5.203125 -5.5625 5.304688 -5.515625 5.390625 -5.421875 C 5.472656 -5.328125 5.515625 -5.222656 5.515625 -5.109375 C 5.515625 -4.984375 5.46875 -4.878906 5.375 -4.796875 C 5.289062 -4.722656 5.191406 -4.6875 5.078125 -4.6875 C 5.078125 -4.6875 5.070312 -4.6875 5.0625 -4.6875 C 4.507812 -4.695312 3.925781 -4.769531 3.3125 -4.90625 C 2.695312 -5.050781 2.132812 -5.304688 1.625 -5.671875 C 1.125 -6.046875 0.753906 -6.578125 0.515625 -7.265625 C 0.335938 -7.816406 0.265625 -8.398438 0.296875 -9.015625 C 0.335938 -9.628906 0.445312 -10.238281 0.625 -10.84375 C 0.8125 -11.457031 1.019531 -12.03125 1.25 -12.5625 C 1.476562 -13.09375 1.695312 -13.554688 1.90625 -13.953125 C 2.519531 -15.078125 3.234375 -16.148438 4.046875 -17.171875 C 4.859375 -18.191406 5.660156 -19.007812 6.453125 -19.625 C 7.222656 -20.207031 7.835938 -20.515625 8.296875 -20.546875 C 8.765625 -20.585938 9.117188 -20.535156 9.359375 -20.390625 C 10.234375 -19.828125 10.351562 -18.234375 9.71875 -15.609375 C 9.550781 -14.921875 9.335938 -14.007812 9.078125 -12.875 C 8.816406 -11.75 8.523438 -10.472656 8.203125 -9.046875 C 7.878906 -7.617188 7.535156 -6.113281 7.171875 -4.53125 C 6.816406 -2.945312 6.460938 -1.359375 6.109375 0.234375 C 5.753906 1.828125 5.414062 3.367188 5.09375 4.859375 C 4.769531 6.359375 4.488281 7.722656 4.25 8.953125 C 4.820312 7.140625 5.421875 5.320312 6.046875 3.5 C 6.679688 1.6875 7.328125 -0.0703125 7.984375 -1.78125 C 8.648438 -3.488281 9.3125 -5.097656 9.96875 -6.609375 C 10.832031 -8.609375 11.59375 -10.222656 12.25 -11.453125 C 12.914062 -12.691406 13.488281 -13.640625 13.96875 -14.296875 C 14.445312 -14.960938 14.851562 -15.421875 15.1875 -15.671875 C 15.519531 -15.929688 15.785156 -16.078125 15.984375 -16.109375 C 16.191406 -16.140625 16.351562 -16.140625 16.46875 -16.109375 C 16.675781 -16.066406 16.878906 -15.929688 17.078125 -15.703125 C 17.273438 -15.484375 17.4375 -15.101562 17.5625 -14.5625 C 17.6875 -14.03125 17.757812 -13.28125 17.78125 -12.3125 C 17.800781 -11.351562 17.75 -10.113281 17.625 -8.59375 C 17.5 -7.082031 17.285156 -5.222656 16.984375 -3.015625 C 17.898438 -5.785156 18.828125 -8.316406 19.765625 -10.609375 C 20.703125 -12.898438 21.613281 -14.863281 22.5 -16.5 C 23.382812 -18.144531 24.207031 -19.398438 24.96875 -20.265625 C 25.738281 -21.140625 26.410156 -21.546875 26.984375 -21.484375 C 27.679688 -21.410156 28.078125 -20.722656 28.171875 -19.421875 Z M 28.171875 -19.421875 "/></g></g></g><g fill="#ffffff" fill-opacity="1"><g transform="translate(207.517031, 361.223311)"><g><path d="M 23.40625 -4.609375 C 23.507812 -4.535156 23.566406 -4.4375 23.578125 -4.3125 C 23.597656 -4.195312 23.578125 -4.09375 23.515625 -4 C 23.421875 -3.882812 23.300781 -3.828125 23.15625 -3.828125 C 23.09375 -3.828125 23.03125 -3.84375 22.96875 -3.875 C 22.800781 -3.90625 22.300781 -3.9375 21.46875 -3.96875 C 20.644531 -4.007812 19.660156 -4.050781 18.515625 -4.09375 C 18.203125 -2.769531 17.890625 -1.441406 17.578125 -0.109375 C 17.273438 1.210938 16.992188 2.488281 16.734375 3.71875 C 16.359375 5.46875 16.066406 6.894531 15.859375 8 C 15.660156 9.101562 15.53125 9.957031 15.46875 10.5625 C 15.40625 11.164062 15.375 11.601562 15.375 11.875 C 15.425781 11.769531 15.488281 11.660156 15.5625 11.546875 C 15.625 11.441406 15.710938 11.375 15.828125 11.34375 C 15.953125 11.3125 16.0625 11.328125 16.15625 11.390625 C 16.257812 11.441406 16.328125 11.523438 16.359375 11.640625 C 16.390625 11.753906 16.375 11.863281 16.3125 11.96875 C 16.164062 12.238281 16 12.488281 15.8125 12.71875 C 15.625 12.957031 15.414062 13.078125 15.1875 13.078125 C 15.113281 13.078125 15.039062 13.0625 14.96875 13.03125 C 14.832031 12.96875 14.722656 12.84375 14.640625 12.65625 C 14.554688 12.46875 14.515625 12.15625 14.515625 11.71875 C 14.515625 11.28125 14.566406 10.671875 14.671875 9.890625 C 14.785156 9.117188 14.960938 8.109375 15.203125 6.859375 C 15.441406 5.617188 15.757812 4.097656 16.15625 2.296875 C 16.5625 0.492188 17.054688 -1.644531 17.640625 -4.125 C 16.890625 -4.132812 16.125 -4.148438 15.34375 -4.171875 C 14.5625 -4.191406 13.804688 -4.210938 13.078125 -4.234375 C 12.890625 -4.242188 12.710938 -4.25 12.546875 -4.25 C 12.390625 -4.25 12.226562 -4.25 12.0625 -4.25 C 11.101562 -2.4375 10.171875 -0.738281 9.265625 0.84375 C 8.367188 2.4375 7.546875 3.742188 6.796875 4.765625 C 6.328125 5.378906 5.882812 5.785156 5.46875 5.984375 C 5.0625 6.179688 4.695312 6.253906 4.375 6.203125 C 4.050781 6.160156 3.789062 6.082031 3.59375 5.96875 C 3.101562 5.675781 2.6875 5.210938 2.34375 4.578125 C 2 3.953125 1.71875 3.210938 1.5 2.359375 C 1.289062 1.503906 1.164062 0.601562 1.125 -0.34375 C 1.09375 -1.300781 1.144531 -2.242188 1.28125 -3.171875 C 1.425781 -4.097656 1.664062 -4.945312 2 -5.71875 C 2.675781 -7.25 3.660156 -8.273438 4.953125 -8.796875 C 6.253906 -9.316406 7.785156 -9.300781 9.546875 -8.75 C 9.660156 -8.71875 9.742188 -8.648438 9.796875 -8.546875 C 9.847656 -8.441406 9.851562 -8.332031 9.8125 -8.21875 C 9.78125 -8.113281 9.710938 -8.03125 9.609375 -7.96875 C 9.503906 -7.90625 9.390625 -7.894531 9.265625 -7.9375 C 8.742188 -8.101562 8.179688 -8.21875 7.578125 -8.28125 C 6.984375 -8.34375 6.390625 -8.300781 5.796875 -8.15625 C 5.203125 -8.007812 4.644531 -7.710938 4.125 -7.265625 C 3.613281 -6.828125 3.171875 -6.191406 2.796875 -5.359375 C 2.441406 -4.578125 2.203125 -3.742188 2.078125 -2.859375 C 1.960938 -1.984375 1.9375 -1.109375 2 -0.234375 C 2.0625 0.628906 2.1875 1.4375 2.375 2.1875 C 2.5625 2.945312 2.796875 3.59375 3.078125 4.125 C 3.367188 4.65625 3.6875 5.019531 4.03125 5.21875 C 4.65625 5.582031 5.34375 5.257812 6.09375 4.25 C 6.800781 3.289062 7.582031 2.0625 8.4375 0.5625 C 9.289062 -0.9375 10.175781 -2.550781 11.09375 -4.28125 C 9.257812 -4.332031 7.789062 -4.378906 6.6875 -4.421875 C 5.59375 -4.460938 4.929688 -4.503906 4.703125 -4.546875 C 4.578125 -4.578125 4.476562 -4.640625 4.40625 -4.734375 C 4.34375 -4.828125 4.328125 -4.9375 4.359375 -5.0625 C 4.378906 -5.1875 4.441406 -5.273438 4.546875 -5.328125 C 4.648438 -5.390625 4.753906 -5.414062 4.859375 -5.40625 C 5.003906 -5.375 5.40625 -5.34375 6.0625 -5.3125 C 6.71875 -5.28125 7.523438 -5.25 8.484375 -5.21875 C 9.441406 -5.1875 10.460938 -5.15625 11.546875 -5.125 C 12.035156 -6.101562 12.53125 -7.082031 13.03125 -8.0625 C 13.539062 -9.050781 14.039062 -10.023438 14.53125 -10.984375 C 15.726562 -13.367188 16.734375 -15.335938 17.546875 -16.890625 C 18.359375 -18.441406 19.023438 -19.644531 19.546875 -20.5 C 20.078125 -21.351562 20.507812 -21.929688 20.84375 -22.234375 C 21.1875 -22.546875 21.484375 -22.65625 21.734375 -22.5625 C 22.003906 -22.457031 22.160156 -22.234375 22.203125 -21.890625 C 22.253906 -21.554688 22.253906 -21.144531 22.203125 -20.65625 C 22.117188 -19.675781 21.859375 -18.222656 21.421875 -16.296875 C 21.285156 -15.648438 21.09375 -14.820312 20.84375 -13.8125 C 20.59375 -12.8125 20.328125 -11.703125 20.046875 -10.484375 C 19.835938 -9.628906 19.617188 -8.734375 19.390625 -7.796875 C 19.171875 -6.859375 18.945312 -5.910156 18.71875 -4.953125 C 19.976562 -4.898438 20.929688 -4.859375 21.578125 -4.828125 C 22.222656 -4.804688 22.671875 -4.773438 22.921875 -4.734375 C 23.179688 -4.703125 23.34375 -4.660156 23.40625 -4.609375 Z M 13.09375 -5.109375 C 14.050781 -5.078125 14.921875 -5.050781 15.703125 -5.03125 C 16.484375 -5.007812 17.195312 -4.988281 17.84375 -4.96875 C 18.25 -6.707031 18.695312 -8.613281 19.1875 -10.6875 C 19.488281 -11.90625 19.757812 -13.015625 20 -14.015625 C 20.238281 -15.023438 20.4375 -15.84375 20.59375 -16.46875 C 20.832031 -17.613281 21.007812 -18.53125 21.125 -19.21875 C 21.25 -19.90625 21.320312 -20.429688 21.34375 -20.796875 C 21.375 -21.171875 21.382812 -21.429688 21.375 -21.578125 C 21.125 -21.316406 20.769531 -20.816406 20.3125 -20.078125 C 19.863281 -19.335938 19.359375 -18.441406 18.796875 -17.390625 C 18.234375 -16.335938 17.648438 -15.21875 17.046875 -14.03125 C 16.453125 -12.851562 15.867188 -11.707031 15.296875 -10.59375 C 14.847656 -9.695312 14.382812 -8.785156 13.90625 -7.859375 C 13.4375 -6.941406 12.972656 -6.023438 12.515625 -5.109375 C 12.597656 -5.109375 12.6875 -5.109375 12.78125 -5.109375 C 12.882812 -5.109375 12.988281 -5.109375 13.09375 -5.109375 Z M 13.09375 -5.109375 "/></g></g></g><g fill="#ffffff" fill-opacity="1"><g transform="translate(232.215417, 361.223311)"><g><path d="M 22.28125 5.421875 C 22.382812 5.460938 22.453125 5.539062 22.484375 5.65625 C 22.523438 5.769531 22.523438 5.882812 22.484375 6 C 22.242188 6.46875 22.019531 6.820312 21.8125 7.0625 C 21.613281 7.300781 21.382812 7.378906 21.125 7.296875 C 20.945312 7.234375 20.816406 7.085938 20.734375 6.859375 C 20.648438 6.640625 20.625 6.234375 20.65625 5.640625 C 20.6875 5.046875 20.769531 4.195312 20.90625 3.09375 C 21.039062 1.988281 21.242188 0.535156 21.515625 -1.265625 C 21.722656 -2.660156 21.921875 -4.078125 22.109375 -5.515625 C 22.304688 -6.960938 22.46875 -8.332031 22.59375 -9.625 C 22.726562 -10.914062 22.78125 -12.015625 22.75 -12.921875 C 22.75 -13.265625 22.71875 -13.648438 22.65625 -14.078125 C 22.59375 -14.503906 22.476562 -14.878906 22.3125 -15.203125 C 22.15625 -15.535156 21.914062 -15.71875 21.59375 -15.75 C 21.238281 -15.789062 20.753906 -15.601562 20.140625 -15.1875 C 19.523438 -14.78125 18.789062 -14.0625 17.9375 -13.03125 C 17.09375 -12.007812 16.160156 -10.601562 15.140625 -8.8125 C 14.410156 -7.539062 13.578125 -5.914062 12.640625 -3.9375 C 11.703125 -1.957031 10.707031 0.414062 9.65625 3.1875 C 8.613281 5.96875 7.582031 9.195312 6.5625 12.875 C 6.550781 12.875 6.546875 12.878906 6.546875 12.890625 C 6.453125 13.148438 6.351562 13.382812 6.25 13.59375 C 6.144531 13.800781 6 13.90625 5.8125 13.90625 C 5.757812 13.90625 5.703125 13.890625 5.640625 13.859375 C 5.429688 13.796875 5.320312 13.628906 5.3125 13.359375 C 5.3125 13.085938 5.347656 12.6875 5.421875 12.15625 C 5.546875 11.40625 5.738281 10.320312 6 8.90625 C 6.46875 6.476562 7.160156 3.164062 8.078125 -1.03125 C 8.390625 -2.46875 8.707031 -3.914062 9.03125 -5.375 C 9.351562 -6.84375 9.664062 -8.253906 9.96875 -9.609375 C 10.28125 -10.972656 10.566406 -12.234375 10.828125 -13.390625 C 11.097656 -14.554688 11.332031 -15.570312 11.53125 -16.4375 C 11.726562 -17.300781 11.882812 -17.957031 12 -18.40625 C 12.207031 -19.269531 12.3125 -19.929688 12.3125 -20.390625 C 12.3125 -20.847656 12.269531 -21.160156 12.1875 -21.328125 C 12.101562 -21.503906 12.039062 -21.617188 12 -21.671875 C 11.84375 -21.753906 11.582031 -21.734375 11.21875 -21.609375 C 10.851562 -21.492188 10.363281 -21.195312 9.75 -20.71875 C 9.039062 -20.175781 8.300781 -19.492188 7.53125 -18.671875 C 6.769531 -17.847656 6.023438 -16.941406 5.296875 -15.953125 C 4.566406 -14.960938 3.894531 -13.9375 3.28125 -12.875 C 2.664062 -11.820312 2.144531 -10.785156 1.71875 -9.765625 C 1.289062 -8.753906 1 -7.8125 0.84375 -6.9375 C 0.695312 -6.0625 0.726562 -5.3125 0.9375 -4.6875 C 1.332031 -3.53125 2.398438 -2.9375 4.140625 -2.90625 C 4.253906 -2.90625 4.351562 -2.859375 4.4375 -2.765625 C 4.519531 -2.671875 4.5625 -2.566406 4.5625 -2.453125 C 4.5625 -2.328125 4.519531 -2.222656 4.4375 -2.140625 C 4.351562 -2.066406 4.253906 -2.03125 4.140625 -2.03125 C 3.640625 -2.039062 3.117188 -2.109375 2.578125 -2.234375 C 2.046875 -2.367188 1.550781 -2.601562 1.09375 -2.9375 C 0.644531 -3.269531 0.316406 -3.757812 0.109375 -4.40625 C -0.109375 -5.070312 -0.164062 -5.804688 -0.0625 -6.609375 C 0.0390625 -7.421875 0.238281 -8.242188 0.53125 -9.078125 C 0.820312 -9.910156 1.15625 -10.703125 1.53125 -11.453125 C 1.90625 -12.203125 2.257812 -12.847656 2.59375 -13.390625 C 3.21875 -14.460938 3.910156 -15.503906 4.671875 -16.515625 C 5.429688 -17.535156 6.195312 -18.46875 6.96875 -19.3125 C 7.75 -20.164062 8.492188 -20.867188 9.203125 -21.421875 C 10.640625 -22.523438 11.71875 -22.847656 12.4375 -22.390625 C 13.238281 -21.878906 13.367188 -20.484375 12.828125 -18.203125 C 12.660156 -17.460938 12.429688 -16.484375 12.140625 -15.265625 C 11.859375 -14.046875 11.539062 -12.65625 11.1875 -11.09375 C 10.84375 -9.53125 10.476562 -7.882812 10.09375 -6.15625 C 9.707031 -4.425781 9.320312 -2.6875 8.9375 -0.9375 C 8.5625 0.8125 8.203125 2.488281 7.859375 4.09375 C 7.523438 5.695312 7.226562 7.144531 6.96875 8.4375 C 8.25 4.414062 9.570312 0.832031 10.9375 -2.3125 C 12.3125 -5.46875 13.660156 -8.125 14.984375 -10.28125 C 16.316406 -12.4375 17.5625 -14.054688 18.71875 -15.140625 C 19.875 -16.234375 20.875 -16.726562 21.71875 -16.625 C 21.988281 -16.582031 22.265625 -16.457031 22.546875 -16.25 C 22.828125 -16.039062 23.066406 -15.675781 23.265625 -15.15625 C 23.472656 -14.632812 23.59375 -13.894531 23.625 -12.9375 C 23.632812 -12.007812 23.578125 -10.890625 23.453125 -9.578125 C 23.328125 -8.273438 23.164062 -6.890625 22.96875 -5.421875 C 22.78125 -3.960938 22.578125 -2.535156 22.359375 -1.140625 C 22.222656 -0.253906 22.09375 0.644531 21.96875 1.5625 C 21.84375 2.488281 21.734375 3.34375 21.640625 4.125 C 21.554688 4.914062 21.515625 5.535156 21.515625 5.984375 C 21.566406 5.867188 21.632812 5.742188 21.71875 5.609375 C 21.757812 5.492188 21.835938 5.414062 21.953125 5.375 C 22.066406 5.34375 22.175781 5.359375 22.28125 5.421875 Z M 22.28125 5.421875 "/></g></g></g><g fill="#ffffff" fill-opacity="1"><g transform="translate(257.386178, 361.223311)"><g><path d="M 24.09375 -21.71875 C 24.21875 -21.71875 24.320312 -21.675781 24.40625 -21.59375 C 24.488281 -21.507812 24.53125 -21.40625 24.53125 -21.28125 C 24.53125 -21.164062 24.488281 -21.066406 24.40625 -20.984375 C 24.320312 -20.898438 24.21875 -20.859375 24.09375 -20.859375 C 22.9375 -20.835938 21.613281 -20.738281 20.125 -20.5625 C 18.644531 -20.394531 17.113281 -20.171875 15.53125 -19.890625 C 13.945312 -19.617188 12.421875 -19.296875 10.953125 -18.921875 C 10.734375 -17.972656 10.476562 -16.929688 10.1875 -15.796875 C 9.894531 -14.671875 9.582031 -13.492188 9.25 -12.265625 C 9.019531 -11.359375 8.773438 -10.421875 8.515625 -9.453125 C 8.265625 -8.492188 8.019531 -7.523438 7.78125 -6.546875 C 8.820312 -6.816406 9.863281 -7.070312 10.90625 -7.3125 C 11.957031 -7.5625 12.941406 -7.78125 13.859375 -7.96875 C 14.785156 -8.15625 15.582031 -8.296875 16.25 -8.390625 C 16.914062 -8.492188 17.382812 -8.539062 17.65625 -8.53125 C 17.78125 -8.507812 17.878906 -8.457031 17.953125 -8.375 C 18.023438 -8.289062 18.0625 -8.191406 18.0625 -8.078125 C 18.050781 -7.953125 18.003906 -7.847656 17.921875 -7.765625 C 17.835938 -7.691406 17.738281 -7.65625 17.625 -7.65625 C 17.320312 -7.675781 16.75 -7.613281 15.90625 -7.46875 C 15.0625 -7.332031 14.054688 -7.140625 12.890625 -6.890625 C 11.722656 -6.648438 10.488281 -6.363281 9.1875 -6.03125 C 8.613281 -5.882812 8.0625 -5.742188 7.53125 -5.609375 C 7.144531 -4.015625 6.785156 -2.46875 6.453125 -0.96875 C 6.128906 0.519531 5.859375 1.894531 5.640625 3.15625 C 5.429688 4.425781 5.320312 5.5 5.3125 6.375 C 5.3125 6.726562 5.34375 7.085938 5.40625 7.453125 C 5.476562 7.828125 5.632812 8.066406 5.875 8.171875 C 6.15625 8.285156 6.53125 8.238281 7 8.03125 C 7.476562 7.820312 8.007812 7.5 8.59375 7.0625 C 9.175781 6.625 9.773438 6.132812 10.390625 5.59375 C 11.003906 5.0625 11.597656 4.515625 12.171875 3.953125 C 12.753906 3.398438 13.269531 2.90625 13.71875 2.46875 C 13.84375 2.351562 13.960938 2.238281 14.078125 2.125 C 14.203125 2.007812 14.316406 1.894531 14.421875 1.78125 L 14.8125 1.421875 C 15.03125 1.210938 15.242188 1.003906 15.453125 0.796875 C 15.660156 0.597656 15.847656 0.421875 16.015625 0.265625 C 16.242188 0.0546875 16.453125 -0.109375 16.640625 -0.234375 C 16.835938 -0.359375 17.019531 -0.34375 17.1875 -0.1875 C 17.382812 -0.0195312 17.40625 0.195312 17.25 0.46875 C 17.101562 0.738281 16.8125 1.164062 16.375 1.75 C 16.300781 1.851562 16.203125 1.910156 16.078125 1.921875 C 15.960938 1.941406 15.859375 1.914062 15.765625 1.84375 C 15.742188 1.832031 15.71875 1.8125 15.6875 1.78125 C 15.632812 1.820312 15.585938 1.863281 15.546875 1.90625 C 15.503906 1.957031 15.457031 2.003906 15.40625 2.046875 L 15.03125 2.40625 C 14.925781 2.507812 14.8125 2.617188 14.6875 2.734375 C 14.570312 2.859375 14.453125 2.972656 14.328125 3.078125 C 13.203125 4.171875 12.132812 5.171875 11.125 6.078125 C 10.125 6.992188 9.203125 7.722656 8.359375 8.265625 C 7.515625 8.816406 6.785156 9.09375 6.171875 9.09375 C 5.929688 9.09375 5.71875 9.046875 5.53125 8.953125 C 4.78125 8.640625 4.421875 7.78125 4.453125 6.375 C 4.472656 5.488281 4.578125 4.429688 4.765625 3.203125 C 4.960938 1.984375 5.21875 0.644531 5.53125 -0.8125 C 5.84375 -2.269531 6.1875 -3.773438 6.5625 -5.328125 C 5.019531 -4.898438 3.820312 -4.523438 2.96875 -4.203125 C 2.113281 -3.878906 1.601562 -3.640625 1.4375 -3.484375 C 1.363281 -3.410156 1.265625 -3.375 1.140625 -3.375 C 1.023438 -3.375 0.921875 -3.421875 0.828125 -3.515625 C 0.753906 -3.585938 0.71875 -3.679688 0.71875 -3.796875 C 0.71875 -3.921875 0.765625 -4.03125 0.859375 -4.125 C 1.035156 -4.300781 1.410156 -4.507812 1.984375 -4.75 C 2.566406 -4.988281 3.273438 -5.238281 4.109375 -5.5 C 4.953125 -5.757812 5.851562 -6.023438 6.8125 -6.296875 C 7.070312 -7.335938 7.335938 -8.378906 7.609375 -9.421875 C 7.890625 -10.460938 8.160156 -11.484375 8.421875 -12.484375 C 8.710938 -13.609375 8.992188 -14.695312 9.265625 -15.75 C 9.535156 -16.800781 9.785156 -17.773438 10.015625 -18.671875 C 8.691406 -18.316406 7.484375 -17.9375 6.390625 -17.53125 C 5.304688 -17.132812 4.421875 -16.726562 3.734375 -16.3125 C 3.046875 -15.894531 2.640625 -15.472656 2.515625 -15.046875 C 2.484375 -14.992188 2.484375 -14.859375 2.515625 -14.640625 C 2.546875 -14.429688 2.796875 -14.171875 3.265625 -13.859375 C 3.347656 -13.785156 3.398438 -13.691406 3.421875 -13.578125 C 3.453125 -13.460938 3.4375 -13.351562 3.375 -13.25 C 3.28125 -13.132812 3.160156 -13.078125 3.015625 -13.078125 C 2.921875 -13.078125 2.835938 -13.097656 2.765625 -13.140625 C 2.171875 -13.546875 1.820312 -13.9375 1.71875 -14.3125 C 1.625 -14.695312 1.613281 -15.023438 1.6875 -15.296875 C 1.832031 -15.773438 2.179688 -16.222656 2.734375 -16.640625 C 3.285156 -17.066406 3.96875 -17.457031 4.78125 -17.8125 C 5.59375 -18.175781 6.472656 -18.507812 7.421875 -18.8125 C 8.367188 -19.125 9.304688 -19.398438 10.234375 -19.640625 C 10.328125 -20.015625 10.40625 -20.335938 10.46875 -20.609375 C 10.476562 -20.734375 10.535156 -20.820312 10.640625 -20.875 C 10.742188 -20.9375 10.847656 -20.960938 10.953125 -20.953125 C 11.078125 -20.921875 11.171875 -20.851562 11.234375 -20.75 C 11.304688 -20.65625 11.328125 -20.550781 11.296875 -20.4375 C 11.265625 -20.28125 11.226562 -20.09375 11.1875 -19.875 C 12.632812 -20.226562 14.140625 -20.539062 15.703125 -20.8125 C 17.273438 -21.082031 18.785156 -21.296875 20.234375 -21.453125 C 21.679688 -21.609375 22.96875 -21.695312 24.09375 -21.71875 Z M 24.09375 -21.71875 "/></g></g></g></svg>