<svg xmlns="http://www.w3.org/2000/svg" xmlns:xlink="http://www.w3.org/1999/xlink" width="500" zoomAndPan="magnify" viewBox="0 0 375 374.999991" height="500" preserveAspectRatio="xMidYMid meet" version="1.0"><defs><g/><clipPath id="b10dbf8965"><path d="M 132 162 L 242 162 L 242 309.027344 L 132 309.027344 Z M 132 162 " clip-rule="nonzero"/></clipPath><clipPath id="50889e307f"><path d="M 132 15.777344 L 242 15.777344 L 242 163 L 132 163 Z M 132 15.777344 " clip-rule="nonzero"/></clipPath><clipPath id="1fd2901d0e"><path d="M 40.71875 108 L 188 108 L 188 218 L 40.71875 218 Z M 40.71875 108 " clip-rule="nonzero"/></clipPath><clipPath id="0865db5d2b"><path d="M 187 108 L 333.96875 108 L 333.96875 218 L 187 218 Z M 187 108 " clip-rule="nonzero"/></clipPath></defs><g clip-path="url(#b10dbf8965)"><path fill="#000000" d="M 219.472656 309.179688 L 155.445312 309.179688 C 143.085938 309.179688 132.976562 299.070312 132.976562 286.714844 L 132.976562 255.636719 L 147.953125 255.636719 L 147.953125 286.714844 C 147.953125 290.832031 151.324219 294.203125 155.445312 294.203125 L 219.472656 294.203125 C 223.589844 294.203125 226.960938 290.832031 226.960938 286.714844 L 226.960938 162.554688 L 241.9375 162.554688 L 241.9375 286.714844 C 241.9375 299.070312 231.902344 309.179688 219.472656 309.179688 Z M 219.472656 309.179688 " fill-opacity="1" fill-rule="nonzero"/></g><g clip-path="url(#50889e307f)"><path fill="#ffffff" d="M 147.953125 162.554688 L 132.976562 162.554688 L 132.976562 38.390625 C 132.976562 26.035156 143.085938 15.925781 155.445312 15.925781 L 219.472656 15.925781 C 231.828125 15.925781 241.9375 26.035156 241.9375 38.390625 L 241.9375 69.46875 L 226.960938 69.46875 L 226.960938 38.390625 C 226.960938 34.273438 223.589844 30.902344 219.472656 30.902344 L 155.445312 30.902344 C 151.324219 30.902344 147.953125 34.273438 147.953125 38.390625 Z M 147.953125 162.554688 " fill-opacity="1" fill-rule="nonzero"/></g><g clip-path="url(#1fd2901d0e)"><path fill="#ffffff" d="M 187.496094 217.070312 L 63.332031 217.070312 C 50.976562 217.070312 40.867188 206.960938 40.867188 194.605469 L 40.867188 130.578125 C 40.867188 118.21875 50.976562 108.109375 63.332031 108.109375 L 94.410156 108.109375 L 94.410156 123.089844 L 63.332031 123.089844 C 59.214844 123.089844 55.84375 126.457031 55.84375 130.578125 L 55.84375 194.605469 C 55.84375 198.722656 59.214844 202.09375 63.332031 202.09375 L 187.496094 202.09375 Z M 187.496094 217.070312 " fill-opacity="1" fill-rule="nonzero"/></g><g clip-path="url(#0865db5d2b)"><path fill="#000000" d="M 311.65625 217.070312 L 280.578125 217.070312 L 280.578125 202.09375 L 311.65625 202.09375 C 315.777344 202.09375 319.144531 198.722656 319.144531 194.605469 L 319.144531 130.578125 C 319.144531 126.457031 315.777344 123.089844 311.65625 123.089844 L 187.496094 123.089844 L 187.496094 108.109375 L 311.65625 108.109375 C 324.011719 108.109375 334.121094 118.21875 334.121094 130.578125 L 334.121094 194.605469 C 334.121094 206.960938 324.011719 217.070312 311.65625 217.070312 Z M 311.65625 217.070312 " fill-opacity="1" fill-rule="nonzero"/></g><g fill="#00bf63" fill-opacity="1"><g transform="translate(67.935439, 353.075017)"><g><path d="M 1.734375 -23.921875 L 10.46875 -23.921875 C 12.90625 -23.921875 14.875 -23.289062 16.375 -22.03125 C 17.882812 -20.78125 18.640625 -18.957031 18.640625 -16.5625 C 18.640625 -14.164062 17.875 -12.285156 16.34375 -10.921875 C 14.820312 -9.554688 12.863281 -8.875 10.46875 -8.875 L 7.1875 -8.875 L 7.1875 0 L 1.734375 0 Z M 7.1875 -13.21875 L 8.734375 -13.21875 C 9.953125 -13.21875 10.953125 -13.460938 11.734375 -13.953125 C 12.515625 -14.453125 12.90625 -15.265625 12.90625 -16.390625 C 12.90625 -17.523438 12.515625 -18.335938 11.734375 -18.828125 C 10.953125 -19.328125 9.953125 -19.578125 8.734375 -19.578125 L 7.1875 -19.578125 Z M 7.1875 -13.21875 "/></g></g></g><g fill="#00bf63" fill-opacity="1"><g transform="translate(87.24423, 353.075017)"><g><path d="M 7.1875 -9.59375 L 7.1875 0 L 1.734375 0 L 1.734375 -23.921875 L 7.1875 -23.921875 L 7.1875 -14.390625 L 14.90625 -14.390625 L 14.90625 -23.921875 L 20.359375 -23.921875 L 20.359375 0 L 14.90625 0 L 14.90625 -9.59375 Z M 7.1875 -9.59375 "/></g></g></g><g fill="#00bf63" fill-opacity="1"><g transform="translate(109.33627, 353.075017)"><g><path d="M 13.890625 -23.921875 L 23.546875 0 L 17.6875 0 L 15.921875 -4.78125 L 6.8125 -4.78125 L 5.046875 0 L -0.8125 0 L 8.84375 -23.921875 Z M 14.0625 -9.5625 L 11.390625 -16.53125 L 11.34375 -16.53125 L 8.671875 -9.5625 Z M 14.0625 -9.5625 "/></g></g></g><g fill="#00bf63" fill-opacity="1"><g transform="translate(132.066134, 353.075017)"><g><path d="M 1.734375 -23.921875 L 10.296875 -23.921875 C 12.597656 -23.921875 14.472656 -23.304688 15.921875 -22.078125 C 17.367188 -20.847656 18.09375 -19.09375 18.09375 -16.8125 C 18.09375 -15.0625 17.648438 -13.585938 16.765625 -12.390625 C 15.890625 -11.203125 14.695312 -10.367188 13.1875 -9.890625 L 21.4375 0 L 14.5 0 L 7.1875 -9.453125 L 7.1875 0 L 1.734375 0 Z M 7.1875 -13.3125 L 7.828125 -13.3125 C 8.328125 -13.3125 8.75 -13.320312 9.09375 -13.34375 C 9.445312 -13.363281 9.847656 -13.429688 10.296875 -13.546875 C 10.742188 -13.660156 11.101562 -13.820312 11.375 -14.03125 C 11.644531 -14.25 11.875 -14.5625 12.0625 -14.96875 C 12.257812 -15.375 12.359375 -15.863281 12.359375 -16.4375 C 12.359375 -17.019531 12.257812 -17.515625 12.0625 -17.921875 C 11.875 -18.328125 11.644531 -18.632812 11.375 -18.84375 C 11.101562 -19.0625 10.742188 -19.226562 10.296875 -19.34375 C 9.847656 -19.457031 9.445312 -19.523438 9.09375 -19.546875 C 8.75 -19.566406 8.328125 -19.578125 7.828125 -19.578125 L 7.1875 -19.578125 Z M 7.1875 -13.3125 "/></g></g></g><g fill="#00bf63" fill-opacity="1"><g transform="translate(152.824537, 353.075017)"><g><path d="M 21.515625 0 L 20.390625 -14.1875 L 20.234375 -14.1875 L 15.34375 -0.140625 L 12.09375 -0.140625 L 7.1875 -14.1875 L 7.046875 -14.1875 L 5.921875 0 L 0.46875 0 L 2.609375 -23.921875 L 8.40625 -23.921875 L 13.71875 -10.125 L 19.03125 -23.921875 L 24.828125 -23.921875 L 26.96875 0 Z M 21.515625 0 "/></g></g></g><g fill="#00bf63" fill-opacity="1"><g transform="translate(180.251137, 353.075017)"><g><path d="M 13.890625 -23.921875 L 23.546875 0 L 17.6875 0 L 15.921875 -4.78125 L 6.8125 -4.78125 L 5.046875 0 L -0.8125 0 L 8.84375 -23.921875 Z M 14.0625 -9.5625 L 11.390625 -16.53125 L 11.34375 -16.53125 L 8.671875 -9.5625 Z M 14.0625 -9.5625 "/></g></g></g><g fill="#00bf63" fill-opacity="1"><g transform="translate(202.981001, 353.075017)"><g><path d="M 23.375 -13.390625 L 23.375 -8.203125 C 22.757812 -5.359375 21.40625 -3.207031 19.3125 -1.75 C 17.226562 -0.289062 14.898438 0.4375 12.328125 0.4375 C 9.097656 0.4375 6.347656 -0.769531 4.078125 -3.1875 C 1.804688 -5.601562 0.671875 -8.523438 0.671875 -11.953125 C 0.671875 -15.429688 1.78125 -18.367188 4 -20.765625 C 6.226562 -23.160156 9.003906 -24.359375 12.328125 -24.359375 C 16.210938 -24.359375 19.285156 -22.992188 21.546875 -20.265625 L 17.984375 -16.359375 C 16.703125 -18.410156 14.921875 -19.4375 12.640625 -19.4375 C 10.960938 -19.4375 9.523438 -18.703125 8.328125 -17.234375 C 7.140625 -15.773438 6.546875 -14.015625 6.546875 -11.953125 C 6.546875 -9.921875 7.140625 -8.179688 8.328125 -6.734375 C 9.523438 -5.296875 10.960938 -4.578125 12.640625 -4.578125 C 14.035156 -4.578125 15.25 -5 16.28125 -5.84375 C 17.3125 -6.6875 17.828125 -7.800781 17.828125 -9.1875 L 12.328125 -9.1875 L 12.328125 -13.390625 Z M 23.375 -13.390625 "/></g></g></g><g fill="#00bf63" fill-opacity="1"><g transform="translate(227.015515, 353.075017)"><g><path d="M 20.125 -23.921875 L 20.125 -8.5 C 20.125 -5.5625 19.332031 -3.335938 17.75 -1.828125 C 16.164062 -0.316406 13.84375 0.4375 10.78125 0.4375 C 7.726562 0.4375 5.410156 -0.316406 3.828125 -1.828125 C 2.242188 -3.335938 1.453125 -5.5625 1.453125 -8.5 L 1.453125 -23.921875 L 6.90625 -23.921875 L 6.90625 -10.09375 C 6.90625 -8.15625 7.207031 -6.8125 7.8125 -6.0625 C 8.425781 -5.3125 9.414062 -4.9375 10.78125 -4.9375 C 12.15625 -4.9375 13.144531 -5.3125 13.75 -6.0625 C 14.363281 -6.8125 14.671875 -8.15625 14.671875 -10.09375 L 14.671875 -23.921875 Z M 20.125 -23.921875 "/></g></g></g><g fill="#00bf63" fill-opacity="1"><g transform="translate(248.585693, 353.075017)"><g><path d="M 13.890625 -23.921875 L 23.546875 0 L 17.6875 0 L 15.921875 -4.78125 L 6.8125 -4.78125 L 5.046875 0 L -0.8125 0 L 8.84375 -23.921875 Z M 14.0625 -9.5625 L 11.390625 -16.53125 L 11.34375 -16.53125 L 8.671875 -9.5625 Z M 14.0625 -9.5625 "/></g></g></g><g fill="#00bf63" fill-opacity="1"><g transform="translate(271.315569, 353.075017)"><g><path d="M 1.734375 -23.921875 L 10.296875 -23.921875 C 12.597656 -23.921875 14.472656 -23.304688 15.921875 -22.078125 C 17.367188 -20.847656 18.09375 -19.09375 18.09375 -16.8125 C 18.09375 -15.0625 17.648438 -13.585938 16.765625 -12.390625 C 15.890625 -11.203125 14.695312 -10.367188 13.1875 -9.890625 L 21.4375 0 L 14.5 0 L 7.1875 -9.453125 L 7.1875 0 L 1.734375 0 Z M 7.1875 -13.3125 L 7.828125 -13.3125 C 8.328125 -13.3125 8.75 -13.320312 9.09375 -13.34375 C 9.445312 -13.363281 9.847656 -13.429688 10.296875 -13.546875 C 10.742188 -13.660156 11.101562 -13.820312 11.375 -14.03125 C 11.644531 -14.25 11.875 -14.5625 12.0625 -14.96875 C 12.257812 -15.375 12.359375 -15.863281 12.359375 -16.4375 C 12.359375 -17.019531 12.257812 -17.515625 12.0625 -17.921875 C 11.875 -18.328125 11.644531 -18.632812 11.375 -18.84375 C 11.101562 -19.0625 10.742188 -19.226562 10.296875 -19.34375 C 9.847656 -19.457031 9.445312 -19.523438 9.09375 -19.546875 C 8.75 -19.566406 8.328125 -19.578125 7.828125 -19.578125 L 7.1875 -19.578125 Z M 7.1875 -13.3125 "/></g></g></g><g fill="#00bf63" fill-opacity="1"><g transform="translate(292.07396, 353.075017)"><g><path d="M 1.734375 -23.921875 L 8.671875 -23.921875 C 11.992188 -23.921875 14.832031 -22.785156 17.1875 -20.515625 C 19.550781 -18.242188 20.734375 -15.398438 20.734375 -11.984375 C 20.734375 -8.535156 19.554688 -5.675781 17.203125 -3.40625 C 14.859375 -1.132812 12.015625 0 8.671875 0 L 1.734375 0 Z M 7.1875 -4.875 L 8.03125 -4.875 C 10.019531 -4.875 11.644531 -5.546875 12.90625 -6.890625 C 14.175781 -8.234375 14.820312 -9.921875 14.84375 -11.953125 C 14.84375 -13.984375 14.207031 -15.671875 12.9375 -17.015625 C 11.675781 -18.367188 10.039062 -19.046875 8.03125 -19.046875 L 7.1875 -19.046875 Z M 7.1875 -4.875 "/></g></g></g></svg>